<?xml version="1.0" encoding="utf-8"?>
<!-- Generator: Adobe Illustrator 25.0.0, SVG Export Plug-In . SVG Version: 6.00 Build 0)  -->
<svg version="1.1" id="Слой_1" xmlns="http://www.w3.org/2000/svg" xmlns:xlink="http://www.w3.org/1999/xlink" x="0px" y="0px"
	 viewBox="0 0 3000 3000" style="enable-background:new 0 0 3000 3000;" xml:space="preserve">
<style type="text/css">
	.st0{fill:#EFE9DF;}
	.st1{fill:#526D6C;}
	.st2{fill:#FFFFFF;}
	.st3{opacity:0.55;}
	.st4{fill:#DDD7CC;}
	.st5{fill:#D6D4D2;}
	.st6{fill:#C9C8C7;}
	.st7{fill:#D3AE7D;}
	.st8{fill:#2F4F4F;}
	.st9{fill:#EAC286;}
	.st10{fill:#DAA520;}
	.st11{fill:#CC7A21;}
	.st12{fill:#E3BB94;}
	.st13{fill:#D3A176;}
	.st14{fill:#B5B5B5;}
	.st15{fill:#AA6221;}
	.st16{fill:#C69422;}
	.st17{fill:#EDC769;}
	.st18{opacity:0.59;}
	.st19{opacity:0.66;}
	.st20{fill:#232222;}
</style>
<g>
	<g>
		<g>
			<path class="st0" d="M2632.02,1500.01c0,70.06-6.19,138.68-18.07,205.33c-7.85,44.19-18.22,87.52-30.92,129.84
				C2439.11,2314.64,1994.36,2664,1468.01,2664c-526.34,0-971.09-349.36-1115.01-828.83c-31.87-106.14-48.99-218.66-48.99-335.16
				c0-178.06,39.98-346.77,111.44-497.67c6.88-14.52,14.05-28.87,21.51-43.06c16.65-31.69,34.73-62.52,54.14-92.4
				c23.04-35.49,47.96-69.63,74.62-102.3C779.17,503.01,1104.09,336,1468.01,336c353.42,0,670.05,157.51,883.53,406.17
				c51.61,60.11,97.19,125.55,135.8,195.38C2579.53,1104.26,2632.02,1296.01,2632.02,1500.01z"/>
		</g>
		<g>
			<g>
				<path class="st1" d="M2280.42,1103.92c-18.18-31.48-5.08-72.27,28.48-86.23c6.76-2.81,14.04-4.41,21.55-4.52
					c9.58-0.15,18.84,2.13,27.19,6.29c31.08,15.48,42.15,54.41,24.79,84.48l-19.98,34.61l-31.02,53.72l-31.02-53.72L2280.42,1103.92
					z"/>
			</g>
			<g>
				<circle class="st2" cx="2331.42" cy="1064.71" r="31.37"/>
			</g>
			<g>
				<circle class="st1" cx="2331.42" cy="1224.58" r="15.42"/>
			</g>
		</g>
		<g class="st3">
			<path class="st4" d="M2583.03,1835.17C2439.11,2314.64,1994.36,2664,1468.02,2664s-971.1-349.36-1115.01-828.83H2583.03z"/>
		</g>
		<g>
			<path class="st2" d="M1144.37,596.76c-3.16,0-6.28,0.03-9.39,0.11c0,0,0,0-0.01,0c0.23-1.36,0.36-2.73,0.36-4.12
				c0-26.6-43.73-48.17-97.68-48.17c-53.95,0-97.68,21.57-97.68,48.17c0,4.97,1.53,9.76,4.36,14.26h-0.01
				c-4.94-0.14-9.97-0.21-15.05-0.21c-79.08,0-143.18,17.22-143.18,38.47c0,0.56,0.05,1.12,0.14,1.67h216.64h69.43h213.56
				c0.01-0.11,0.01-0.22,0.01-0.33C1285.87,619.07,1222.52,596.76,1144.37,596.76z"/>
		</g>
		<g>
			<path class="st2" d="M807.64,1090.66c-3.16,0-6.28,0.03-9.39,0.11c0,0,0,0,0,0c0.23-1.36,0.36-2.73,0.36-4.12
				c0-26.6-43.73-48.17-97.68-48.17c-53.95,0-97.68,21.57-97.68,48.17c0,4.97,1.53,9.76,4.36,14.26h-0.01
				c-4.94-0.14-9.97-0.21-15.05-0.21c-79.08,0-143.18,17.22-143.18,38.47c0,0.56,0.05,1.12,0.14,1.67h216.64h69.43h213.56
				c0.01-0.11,0.01-0.22,0.01-0.33C949.14,1112.97,885.79,1090.66,807.64,1090.66z"/>
		</g>
		<g>
			<path class="st2" d="M1692.37,2472.33h-494.91c-4.9,0-8.87-3.97-8.87-8.87v-4.66c0-4.9,3.97-8.87,8.87-8.87h494.91
				c4.9,0,8.87,3.97,8.87,8.87v4.66C1701.24,2468.36,1697.27,2472.33,1692.37,2472.33z"/>
		</g>
		<g>
			<path class="st2" d="M1898.16,2515.26h-494.91c-4.9,0-8.87-3.97-8.87-8.87v-4.66c0-4.9,3.97-8.87,8.87-8.87h494.91
				c4.9,0,8.87,3.97,8.87,8.87v4.66C1907.04,2511.28,1903.06,2515.26,1898.16,2515.26z"/>
		</g>
		<g>
			<path class="st5" d="M698.67,1835.17h783.14c0,0-143.91-296.72-259.09-515.65c-65.42-124.35-121.56-223.6-136.79-229.12
				c-21.38-7.74-121.13,184.94-214.02,376.23h-0.01C782.08,1651.55,698.67,1835.17,698.67,1835.17z"/>
		</g>
		<g>
			<path class="st2" d="M1967.98,706.76c2.74,0,5.46,0.06,8.15,0.18c0,0,0,0,0,0c-0.2-2.25-0.31-4.52-0.31-6.81
				c0-43.97,37.98-79.61,84.83-79.61s84.83,35.64,84.83,79.61c0,8.21-1.32,16.12-3.78,23.57h0.01c4.29-0.23,8.66-0.35,13.07-0.35
				c68.67,0,124.34,28.46,124.34,63.58c0,0.93-0.04,1.85-0.12,2.76h-188.14h-60.3h-185.47c-0.01-0.19-0.01-0.36-0.01-0.55
				C1845.09,743.64,1900.11,706.76,1967.98,706.76z"/>
		</g>
		<g>
			<path class="st2" d="M871.9,1466.63l110.25-70.27l31.01,114.51l77.36-134.23l70.36,156.37l25.2-168.88l92.14,91.01l-55.5-135.61
				c-65.42-124.35-121.56-223.6-136.79-229.12C1064.55,1082.66,964.8,1275.34,871.9,1466.63z"/>
		</g>
		<g>
			<path class="st6" d="M2208.68,1835.17h-944.03c0,0,173.48-357.68,312.32-621.59c78.86-149.89,146.53-269.54,164.9-276.19
				c25.77-9.32,146.01,222.93,257.99,453.52h0.01C2108.13,1613.83,2208.68,1835.17,2208.68,1835.17z"/>
		</g>
		<g>
			<path class="st2" d="M1999.86,1390.92l-132.9-84.7l-37.38,138.03l-93.25-161.81l-78.15,149.6l-37.04-164.69l-111.07,109.7
				l66.9-163.47c78.86-149.89,146.53-269.54,164.9-276.19C1767.63,928.07,1887.88,1160.32,1999.86,1390.92z"/>
		</g>
		<g>
			<path class="st5" d="M1075.72,1835.17H353c0,0,119.88-219.14,227.57-397.76l0.15-0.28c74.64-123.79,143.4-228.05,162.26-226.28
				c23.77,2.22,111.48,168.14,190.88,328.35l1.81,3.65l10.74,21.78l3.86,7.84C1018.04,1710.43,1075.72,1835.17,1075.72,1835.17z"/>
		</g>
		<g>
			<path class="st5" d="M2613.95,1705.33c-7.85,44.19-18.22,87.52-30.92,129.84h-638.15l269.77-346.22l42.66-54.76l51.03-65.5
				l23.56-30.24l21.6,28.09L2613.95,1705.33z"/>
		</g>
		<g>
			<path class="st2" d="M950.28,1572.46l-151.84-135.05l-62.38,135.05l-61.32-135.27l-94.16,115.07v-114.85l0.15-0.28
				c74.64-123.79,143.4-228.05,162.26-226.28c23.77,2.22,111.48,168.14,190.88,328.35l1.81,3.65l10.74,21.78L950.28,1572.46z"/>
		</g>
		<g>
			<polygon class="st2" points="2202.33,1504.75 2202.33,1575.18 2269.25,1490.11 2287.21,1593.67 2321.69,1482.45 2368.24,1586.81 
				2396.76,1485.06 2496.27,1552.26 2331.9,1338.45 			"/>
		</g>
		<g>
			<g>
				<g>
					<polygon class="st7" points="1819.26,2101.63 1816.65,2226.88 1754.03,2238.62 1756.64,2093.81 					"/>
				</g>
			</g>
			<g>
				<g>
					<path d="M1835.77,2247.77c6.91,3.5,164.39,49.57,164.39,49.57l-248.52-2.51l1.26-67.97l64.68-5.49L1835.77,2247.77z"/>
				</g>
			</g>
			<g>
				<path class="st8" d="M594.78,2252.35v10.59c0,31.63,24.71,57.51,55.89,59.36c1.19,0.07,2.38,0.12,3.59,0.12h15.69
					c1.05,0,2.12-0.05,3.14-0.14c6.07-0.52,11.83-2.55,16.83-5.81c4.31-2.79,8.09-6.47,11.04-10.88
					c45.11-67.34,121.92-111.71,209.06-111.71c87.14,0,163.98,44.37,209.06,111.71c2.95,4.4,6.74,8.09,11.04,10.88
					c5.07,3.31,10.95,5.36,17.11,5.83c0.95,0.07,1.9,0.12,2.86,0.12h69.08c7.02,0,13.64,3.28,17.88,8.88l24.8,32.61
					c4.07,5.38,16.07,18.02,16.07,18.02h745.03l464.15-216.6c0,0,252.31,85.69,202.32-69c-42.63-131.96-274.04-135.79-341.17-134.08
					c-10.45,0.26-19.61-6.74-22.3-16.85c-33.3-125.44-178.64-349.12-215.8-405.03c-5.17-7.81-14.64-11.57-23.78-9.47l-81.81,18.9
					c-13.73,3.17-21.21,18.02-15.54,30.94c46.8,106.42,211.46,525.78-35.11,658.38c-283.25,152.34-428.45-59.51-464.15-97.59
					c-27.61-29.44,48.65-184.07,84.67-252.74c7.85-14.95-3.02-32.9-19.92-32.9H952.35c-6.4,0-12.47,2.71-16.76,7.47l-335.07,373.99
					C596.83,2241.47,594.78,2246.83,594.78,2252.35z"/>
			</g>
			<g>
				<g>
					<polygon class="st9" points="1855.79,2099.03 1853.18,2224.27 1790.56,2236.01 1793.17,2091.2 					"/>
				</g>
			</g>
			<g>
				<circle class="st10" cx="2219.32" cy="1423.85" r="51.18"/>
			</g>
			<g>
				<path class="st11" d="M1492.15,953.77c-12-4.36-31.01-9.63-54.75-9.52c-26.42,0.12-47.18,6.84-59.51,11.9
					c10.7,24.47,57.13,16.47,57.13,40.39c0,0.07,40.46-16.59,40.46-16.59L1492.15,953.77z"/>
			</g>
			<g>
				<polygon class="st12" points="1393.08,843.03 1393.48,852.79 1394.69,883.45 1398.06,967.49 1479.38,970.81 1474.4,922.85 
					1466.1,843.03 				"/>
			</g>
			<g>
				<path class="st13" d="M1393.48,852.79l1.21,30.67c6.47,14.57,23.53,29.21,62.55,37.42c6.17,1.31,11.88,1.94,17.16,1.97
					l-8.3-79.82h-67.38c-1.74,1.63-3.15,3.73-4.07,6.19C1394.24,850.33,1393.85,851.52,1393.48,852.79z"/>
			</g>
			<g>
				<path class="st12" d="M1542.44,800.71c0,6.18-0.43,12.22-1.25,18.11c-6.78,48.65-40.42,85.61-80.9,85.61
					c-13.41,0-26.07-4.06-37.25-11.25c-26.64-17.14-44.89-52.12-44.89-92.47c0-57.29,36.78-103.72,82.14-103.72
					c39.62,0,72.69,35.41,80.43,82.53c1.03,6.26,1.62,12.73,1.71,19.35C1542.44,799.48,1542.44,800.1,1542.44,800.71z"/>
			</g>
			<g>
				<path class="st8" d="M2658.92,2445.34c0,59.01-23.95,112.42-62.68,151.05c-38.6,38.5-91.87,62.32-150.71,62.32
					c-117.84,0-213.37-95.54-213.37-213.37c0-117.85,95.54-213.39,213.37-213.39C2563.38,2231.96,2658.92,2327.49,2658.92,2445.34z"
					/>
			</g>
			<g>
				<path class="st14" d="M2538.86,2445.34c0,43.69-29.16,80.56-69.08,92.23c-0.74,0.22-1.49,0.43-2.24,0.63
					c-1.03,0.27-2.07,0.53-3.13,0.77c-2.65,0.61-5.35,1.11-8.09,1.5c-0.99,0.14-1.98,0.26-2.97,0.37c-0.09,0.01-0.18,0.03-0.27,0.04
					c-0.76,0.08-1.51,0.16-2.28,0.21c-0.67,0.06-1.33,0.1-2.01,0.14c-1.04,0.07-2.1,0.12-3.16,0.14c-0.94,0.04-1.88,0.05-2.83,0.05
					c-0.82,0-1.64-0.01-2.47-0.04c-0.8-0.03-1.58-0.05-2.37-0.09c-0.67-0.03-1.33-0.07-1.98-0.12c-0.2-0.01-0.4-0.03-0.6-0.05
					c-0.7-0.05-1.41-0.1-2.11-0.18c-0.69-0.07-1.4-0.14-2.09-0.22c-1.03-0.13-2.06-0.26-3.09-0.43c-1.34-0.2-2.69-0.43-4.02-0.7
					c-0.2-0.04-0.39-0.08-0.57-0.12c-0.57-0.12-1.15-0.23-1.72-0.36c-0.22-0.05-0.44-0.1-0.67-0.16c-0.93-0.21-1.84-0.43-2.74-0.68
					c-41.23-10.8-71.64-48.31-71.64-92.92c0-44.84,30.72-82.52,72.29-93.09c0.09-0.04,0.2-0.05,0.29-0.08
					c0.82-0.21,1.64-0.4,2.47-0.59c0.77-0.17,1.55-0.34,2.32-0.5c0.59-0.13,1.19-0.23,1.79-0.34c0.18-0.04,0.38-0.07,0.56-0.1
					c0.4-0.07,0.81-0.13,1.23-0.2c0.65-0.1,1.3-0.21,1.97-0.29c0.43-0.07,0.86-0.12,1.29-0.17c0.5-0.07,1-0.13,1.5-0.18
					c0.04,0,0.09-0.01,0.14-0.01c0.6-0.07,1.21-0.12,1.81-0.17c0.85-0.08,1.71-0.14,2.57-0.18c0.56-0.04,1.12-0.07,1.68-0.09
					c0.64-0.03,1.28-0.05,1.92-0.07c0.76-0.03,1.51-0.03,2.27-0.03c0.72,0,1.44,0.01,2.15,0.03c0.81,0.01,1.62,0.04,2.43,0.08
					c1.36,0.06,2.71,0.16,4.04,0.27c2.14,0.2,4.25,0.46,6.35,0.78c0.68,0.1,1.36,0.22,2.04,0.34c0.69,0.13,1.38,0.26,2.07,0.4
					c0.77,0.16,1.54,0.31,2.3,0.5c0.93,0.21,1.83,0.43,2.74,0.67c1.92,0.5,3.8,1.06,5.66,1.66c23.17,7.55,42.47,23.68,54.14,44.63
					l0.01,0.01c5.28,9.46,9,19.9,10.83,30.97C2538.42,2434.72,2538.86,2439.98,2538.86,2445.34z"/>
			</g>
			<g>
				<path class="st2" d="M2442.93,2614.11c-93.06,0-168.78-75.71-168.78-168.78s75.71-168.78,168.78-168.78
					s168.78,75.71,168.78,168.78S2535.99,2614.11,2442.93,2614.11z M2442.93,2281.56c-90.31,0-163.78,73.47-163.78,163.78
					s73.47,163.78,163.78,163.78c90.31,0,163.78-73.47,163.78-163.78S2533.23,2281.56,2442.93,2281.56z"/>
			</g>
			<g>
				<circle class="st8" cx="910.03" cy="2445.34" r="213.38"/>
			</g>
			<g>
				<g>
					<path class="st2" d="M910.03,2143.9c-117.47,0-219.64,61.68-251.43,147.58h11.35c1.04,0,2.13-0.04,3.14-0.12
						c33.23-79.02,128.1-138.17,236.94-138.17c108.82,0,203.94,59.17,237.21,138.19c0.95,0.07,1.9,0.1,2.86,0.1h11.36
						C1129.66,2205.59,1027.49,2143.9,910.03,2143.9z"/>
				</g>
			</g>
			<g>
				<path class="st14" d="M1005.98,2445.34c0,53.06-43.01,96.07-96.07,96.07c-25.36,0-48.4-9.81-65.57-25.86
					c-9.76-9.12-17.61-20.24-22.91-32.72c-4.89-11.52-7.59-24.19-7.59-37.5c0-53.06,43.01-96.07,96.07-96.07
					C962.96,2349.27,1005.98,2392.28,1005.98,2445.34z"/>
			</g>
			<g>
				<path class="st2" d="M910.03,2614.11c-93.06,0-168.78-75.71-168.78-168.78s75.71-168.78,168.78-168.78
					c93.06,0,168.78,75.71,168.78,168.78S1003.09,2614.11,910.03,2614.11z M910.03,2281.56c-90.31,0-163.78,73.47-163.78,163.78
					s73.47,163.78,163.78,163.78s163.78-73.47,163.78-163.78S1000.33,2281.56,910.03,2281.56z"/>
			</g>
			<g>
				<g>
					<path class="st2" d="M959.44,2041.26c-0.87-3.22-2.26-6.04-4.19-8.47c-1.92-2.43-4.34-4.29-7.29-5.58
						c-2.94-1.3-6.8-1.94-11.59-1.94h-24.24v52.81h24.24c2.91,0,6.16-0.47,9.73-1.44c2.62-0.7,5.06-2.1,7.34-4.2
						c2.28-2.1,4.07-4.71,5.35-7.81c1.29-3.12,1.93-7.49,1.93-13.14C960.73,2047.88,960.3,2044.48,959.44,2041.26z M943.12,2060.98
						c-0.82,1.88-1.94,3.21-3.39,3.97c-1.44,0.76-3.86,1.14-7.28,1.14h-3.99v-28.86h4.07c4.23,0,7.25,1.03,9.08,3.09
						c1.83,2.06,2.74,5.9,2.74,11.49C944.34,2056.04,943.93,2059.09,943.12,2060.98z"/>
				</g>
				<g>
					<path class="st2" d="M1000.53,2066.11v-10.41h25.4v-10.76h-25.4v-8.4h27.38v-11.27h-43.74v52.81h44.54v-11.96H1000.53z"/>
				</g>
				<g>
					<path class="st2" d="M1068.73,2065.07v-39.8h-16.32v52.81h41.79v-13.01H1068.73z"/>
				</g>
				<g>
					<path class="st2" d="M1117.18,2025.26v52.81h16.35v-52.81H1117.18z"/>
				</g>
				<g>
					<path class="st2" d="M1195.64,2025.26l-11.73,38l-11.9-38h-17.05l19.95,52.81h17.69l19.61-52.81H1195.64z"/>
				</g>
				<g>
					<path class="st2" d="M1248.77,2066.11v-10.41h25.4v-10.76h-25.4v-8.4h27.38v-11.27h-43.74v52.81h44.54v-11.96H1248.77z"/>
				</g>
				<g>
					<path class="st2" d="M1344.91,2062.77c-0.38-0.77-1.15-1.87-2.28-3.27c-1.15-1.42-2.01-2.35-2.61-2.78
						c-0.89-0.65-2.31-1.3-4.25-1.96c2.43-0.55,4.34-1.24,5.73-2.09c2.19-1.32,3.91-3.04,5.17-5.17c1.24-2.13,1.87-4.66,1.87-7.58
						c0-3.37-0.81-6.22-2.44-8.56c-1.64-2.35-3.78-3.95-6.46-4.81c-2.66-0.86-6.52-1.29-11.56-1.29h-27.2v52.81h16.39v-21.44h1.45
						c1.49,0,2.82,0.4,3.99,1.23c0.87,0.63,1.85,1.98,2.96,4.07l8.72,16.14h18.45L1344.91,2062.77z M1331.1,2044.28
						c-0.68,0.89-1.57,1.44-2.65,1.66c-2.14,0.48-3.57,0.72-4.32,0.72h-6.89v-10.74h7.18c2.97,0,5.01,0.46,6.09,1.37
						c1.07,0.91,1.62,2.22,1.62,3.93C1332.14,2042.38,1331.8,2043.4,1331.1,2044.28z"/>
				</g>
				<g>
					<path class="st2" d="M1403.88,2025.26l-10.67,17.82l-10.63-17.82h-18.13l20.57,30.7v22.11h16.36v-22.11l20.54-30.7H1403.88z"/>
				</g>
			</g>
			<g>
				<g>
					<path class="st11" d="M1537.61,767.16c2.04,6.04,25.94,23.23,13.16,38.4c-12.77,15.17-51.65-1.71-64.19-8.57
						c-12.54-6.86-27.35,3.36-39.14,6.52c-49.17,13.19-48.59-26-48.59-26L1537.61,767.16z"/>
				</g>
			</g>
			<g>
				<path class="st8" d="M654.51,1623.78l-20.62-4.21c-0.42-0.09-42.47-8.69-83.97-18.64c-24.4-5.85-43.85-11.03-57.81-15.38
					c-25.81-8.04-27.94-11.67-27.91-14.69c0.03-3.93,5.46-4.94,7.51-5.32c17.46-3.25,50.38,4.09,97.82,21.81
					c35.12,13.12,65.61,27.36,65.92,27.5L654.51,1623.78z M469.76,1571.21c2.91,2.49,17.08,9.54,84.09,25.52
					c21.31,5.08,42.53,9.76,57.9,13.07c-36.6-15.75-109.73-44.8-139.12-39.33C471.21,1570.72,470.31,1570.99,469.76,1571.21z"/>
			</g>
			<g>
				<path class="st8" d="M627.64,1619.98l-1.39-4.78c0.42-0.16,42.33-16.54,85.99-31.56c89.23-30.7,98.73-25.95,101.85-24.39
					c1.89,0.94,2.62,2.33,2.89,3.32c0.27,0.99,0.37,2.54-0.75,4.34c-1.86,3-7.5,12.12-99.2,33.83
					C672.16,1611.36,628.08,1619.89,627.64,1619.98z M807.57,1563.05c-4.13,0-11.89,0.89-26.37,4.51
					c-15.87,3.97-37.27,10.54-63.6,19.53c-22.29,7.61-44.41,15.7-61.09,21.94c17.45-3.65,40.51-8.64,63.45-14.13
					c27.07-6.48,48.67-12.38,64.19-17.52c27.44-9.09,28-13.33,28.01-13.51C812.12,1563.83,811.45,1563.05,807.57,1563.05z"/>
			</g>
			<g>
				<path class="st10" d="M418.85,1692.82v232.72c0,6.29,5.15,11.45,11.45,11.45h390.09c6.29,0,11.45-5.15,11.45-11.45v-232.72
					c0-6.29-5.15-11.45-11.45-11.45H430.29C424,1681.37,418.85,1686.52,418.85,1692.82z"/>
			</g>
			<g>
				<path class="st11" d="M418.85,1692.82v87.75h412.98v-87.75c0-6.29-5.15-11.45-11.45-11.45H430.29
					C424,1681.37,418.85,1686.52,418.85,1692.82z"/>
			</g>
			<g>
				<path class="st10" d="M409.86,1756.72h435.72c6.6,0,12-5.4,12-12V1622.8c0-6.6-5.4-12-12-12H409.86c-6.6,0-12,5.4-12,12v121.93
					C397.86,1751.32,403.26,1756.72,409.86,1756.72z"/>
			</g>
			<g>
				<path class="st2" d="M1424.25,848.81c23.75-2.96,104.86,3.32,113.21-12.68c0,0,16.63,90.11-69.54,75.88
					c-65.5-10.82-60.56-41.24-54.42-55.22C1415.42,852.42,1419.5,849.4,1424.25,848.81z"/>
			</g>
			<g>
				<path class="st2" d="M1414.69,859.75c-0.05,0-0.09,0-0.14-0.01c-9.54-1.32-18.74-11.24-27.34-29.49
					c-6.33-13.43-9.99-26.66-10.03-26.79c-0.15-0.53,0.17-1.08,0.7-1.23c0.53-0.15,1.08,0.17,1.23,0.7
					c0.14,0.52,14.47,51.89,35.71,54.83c0.55,0.08,0.93,0.58,0.85,1.13C1415.61,859.39,1415.18,859.75,1414.69,859.75z"/>
			</g>
			<g>
				<path class="st8" d="M1536.34,1835.86c21.41-1.42,30.54-27.92,14.53-42.21c-96.18-85.83-346.11-280.36-465.75-223.39
					c-149.96,71.41-172.84,223.75-79.28,261.83C1080.37,1862.43,1406.67,1844.43,1536.34,1835.86z"/>
			</g>
			<g>
				<path class="st8" d="M2230.03,1381.22v84.61c0,17.9-13.55,32.9-31.36,34.7l-0.03,0c-20.15,2.04-40.51,0.29-60.02-5.17
					l-54.33-15.21c-20.9-5.85-31.37-29.11-22.04-48.7c16.9-35.47,53.94-82.75,131.7-85.11c10.37-0.31,20.37,3.94,27.27,11.7l0,0
					C2226.9,1364.43,2230.03,1372.68,2230.03,1381.22z"/>
			</g>
			<g>
				<path class="st2" d="M2034.86,2329.51c-0.91,0-1.79-0.5-2.23-1.37c-0.62-1.23-0.13-2.74,1.1-3.36
					c93.99-47.56,349.7-162.28,352.27-163.44c1.26-0.56,2.74,0,3.3,1.26c0.56,1.26,0,2.74-1.26,3.3
					c-2.57,1.15-258.17,115.83-352.06,163.34C2035.62,2329.42,2035.24,2329.51,2034.86,2329.51z"/>
			</g>
			<g>
				<path class="st8" d="M2073.02,1633.35c-2.93,0-5.72-1.73-6.92-4.61c-36.66-87.73-93.33-221.44-99.22-230.23
					c-2.47-3.33-1.74-7.99,1.58-10.45c3.33-2.47,8.05-1.73,10.52,1.59c7.57,10.2,85.42,196.13,100.95,233.3
					c1.6,3.82-0.21,8.21-4.03,9.81C2074.97,1633.16,2073.99,1633.35,2073.02,1633.35z"/>
			</g>
			<g>
				<path class="st8" d="M854.85,1943.84H401.36v-78.42c0-1.66,1.34-3,3-3s3,1.34,3,3v72.42h441.49v-72.42c0-1.66,1.34-3,3-3
					s3,1.34,3,3V1943.84z"/>
			</g>
			<g>
				<path class="st8" d="M756.65,2118.34c-0.88,0-1.75-0.38-2.34-1.12l-139.76-174.51c-1.04-1.29-0.83-3.18,0.47-4.22
					s3.18-0.83,4.22,0.47l139.76,174.51c1.04,1.29,0.83,3.18-0.47,4.22C757.97,2118.13,757.3,2118.34,756.65,2118.34z"/>
			</g>
			<g>
				<path class="st15" d="M1564.75,1472.44l256.85,52.16c38.31,7.78,67.17,39.74,71.25,78.92l-70.98,539.87h-67.84l-49.39-419.51
					C1702.72,1756.64,1564.75,1472.44,1564.75,1472.44z"/>
			</g>
			<g>
				<path class="st2" d="M1926.24,1440.18c0,0,67-47.03,74.36-27.4c3.91,10.44-3.91,11.74-7.83,20.87
					c-9.37,21.86,25.37-8.38,35.23,2.61c11.64,12.98,15.3,28.37,7.83,52.19c-6.91,22.01-79.54,10.23-122.64-3.91
					C1870.11,1470.4,1926.24,1440.18,1926.24,1440.18z"/>
			</g>
			<g>
				<path class="st11" d="M1601.28,1472.44l256.85,52.16c38.31,7.78,67.17,39.74,71.25,78.92l-70.98,539.87h-67.84l-49.39-419.51
					c-1.92,32.77-318.39,66.06-453.72-70.3c-121.25-122.17-41.66-283.25-41.66-283.25L1601.28,1472.44z"/>
			</g>
			<g>
				<path class="st10" d="M1242.61,1282.32c14.35-104.37,135.28-326.17,135.28-326.17c76.17,28.56,114.25-2.38,114.25-2.38
					l64.23,102.65c57.12,85.87-19.48,235.13-13.7,338.1l-6.52,54.8c3.44,61.34-312.95,43.86-313.11,0
					C1222.9,1411.14,1236.06,1329.96,1242.61,1282.32z"/>
			</g>
			<g>
				<path class="st16" d="M1367.12,1232.2c0,0,47.7,194.93,169.03,217.11l6.52-54.8L1367.12,1232.2z"/>
			</g>
			<g>
				<path class="st17" d="M1630.04,1279.01c0,0-110.45-176.93-181.85-208.51c-137.14-60.67-136.24,188.3,31.87,304.4
					c86.46,59.71,433.13,109.64,433.13,109.64l13.05-44.36L1630.04,1279.01z"/>
			</g>
			<g>
				<path class="st2" d="M1962.79,2350.69C1962.79,2350.69,1962.79,2350.69,1962.79,2350.69l-77.24-0.12c-1.38,0-2.5-1.12-2.5-2.5
					c0-1.38,1.12-2.5,2.5-2.5c0,0,0,0,0,0l77.24,0.12c1.38,0,2.5,1.12,2.5,2.5C1965.29,2349.57,1964.17,2350.69,1962.79,2350.69z"/>
			</g>
			<g>
				<path class="st2" d="M1815.81,2350.69C1815.81,2350.69,1815.8,2350.69,1815.81,2350.69l-77.24-0.12c-1.38,0-2.5-1.12-2.5-2.5
					c0-1.38,1.12-2.5,2.5-2.5c0,0,0,0,0,0l77.24,0.12c1.38,0,2.5,1.12,2.5,2.5C1818.3,2349.57,1817.19,2350.69,1815.81,2350.69z"/>
			</g>
			<g>
				<path class="st2" d="M1668.82,2350.69C1668.82,2350.69,1668.82,2350.69,1668.82,2350.69l-77.24-0.12c-1.38,0-2.5-1.12-2.5-2.5
					c0-1.38,1.12-2.5,2.5-2.5c0,0,0,0,0,0l77.24,0.12c1.38,0,2.5,1.12,2.5,2.5C1671.32,2349.57,1670.2,2350.69,1668.82,2350.69z"/>
			</g>
			<g>
				<path class="st2" d="M1521.84,2350.69C1521.84,2350.69,1521.84,2350.69,1521.84,2350.69l-77.24-0.12c-1.38,0-2.5-1.12-2.5-2.5
					c0-1.38,1.12-2.5,2.5-2.5c0,0,0,0,0,0l77.24,0.12c1.38,0,2.5,1.12,2.5,2.5C1524.34,2349.57,1523.22,2350.69,1521.84,2350.69z"/>
			</g>
			<g>
				<path class="st2" d="M1374.86,2350.69C1374.86,2350.69,1374.86,2350.69,1374.86,2350.69l-77.24-0.12c-1.38,0-2.5-1.12-2.5-2.5
					c0-1.38,1.12-2.5,2.5-2.5c0,0,0,0,0,0l77.24,0.12c1.38,0,2.5,1.12,2.5,2.5C1377.36,2349.57,1376.24,2350.69,1374.86,2350.69z"/>
			</g>
			<g>
				<g>
					<path class="st11" d="M1340.48,892.94c0,0-74.62-18.8-128.24,7.23l-34.95,16.96c-11.66,5.66-25.06,5.77-36.72,0.27
						c-30.98-14.63-94.41-42.38-130.3-42.66c-53.82-0.42-73.07,11.02-70.33,47.68c3.47,46.32,107.9,80.24,183.95,67.66
						c76.05-12.58,121.33,27.4,186.29-15.43c69.9-46.08,74.47-65.95,74.47-65.95L1340.48,892.94z"/>
				</g>
			</g>
			<g>
				<g>
					<path d="M1389.14,912.01l4.17-5.46c4.47-5.85,3.5-14.52-2.15-19.28l-14.41-12.12c-5.65-4.76-13.93-3.86-18.4,1.98l-4.17,5.46
						c-4.47,5.85-3.5,14.52,2.15,19.28l14.41,12.12C1376.4,918.75,1384.68,917.86,1389.14,912.01z"/>
				</g>
			</g>
			<g>
				<path class="st10" d="M1428.7,871.66c-6.05,18.43-11.68,22.62-16.08,24.11c-13.54,4.59-30.03-11.42-34.83-16.08
					c-33.4-32.43-52.06-106.49-14.86-158.8c18.76-26.38,44.69-37.3,57.11-41.4c37.28-12.3,86.05-6.87,115.65,24.27
					c22.21,23.37,27.23,54.47,24.27,71.39c-0.85,4.89-2.45,9.55-6.29,12.89c-8.66,7.53-67.37,0.56-90.15-0.78
					c-7.65-0.45-15.11-0.14-17.42,1.34C1430.12,798.84,1443.52,826.48,1428.7,871.66z"/>
			</g>
			<g>
				<g>
					<g>
						<path class="st2" d="M1043.74,1947.65v-17.35c0-5.62-1.66-10.29-4.97-14.02c-1.64-1.74-3.65-3.09-6.01-4.08
							c-2.35-0.99-4.97-1.49-7.87-1.49c-3.97,0-7.35,0.82-10.11,2.48c-2.77,1.66-4.89,3.84-6.39,6.58c-0.9,1.64-1.53,3.55-1.85,5.7
							c-0.33,2.15-0.5,4.5-0.5,7.07v20.7c0,2.57,0.17,4.92,0.5,7.07c0.33,2.15,0.95,4.06,1.85,5.7c1.5,2.73,3.63,4.92,6.39,6.58
							c2.77,1.66,6.14,2.48,10.11,2.48c2.9,0,5.49-0.5,7.81-1.49c2.31-0.99,4.29-2.35,5.95-4.08c3.39-3.39,5.09-7.85,5.09-13.4
							h-12.65c-0.17,1.41-0.64,2.8-1.42,4.21c-0.8,1.41-2.37,2.11-4.77,2.11c-1.91,0-3.42-0.54-4.53-1.62
							c-1.12-1.07-1.67-2.61-1.67-4.59v-8.56H1043.74z M1018.7,1930.54c0-2.4,0.55-4.2,1.67-5.4c1.11-1.2,2.62-1.8,4.53-1.8
							c1.89,0,3.4,0.6,4.53,1.8c1.11,1.2,1.67,3,1.67,5.4v7.19h-12.39V1930.54z"/>
					</g>
				</g>
				<g>
					<g>
						<path class="st2" d="M1078.96,1942.19l15.02-30.75h-13.4l-7.81,17.85l-7.81-17.85h-13.39l14.76,30.75l-15.5,32.12h13.39
							l8.56-19.22l8.56,19.22h13.4L1078.96,1942.19z"/>
					</g>
				</g>
				<g>
					<g>
						<path class="st2" d="M1140.24,1921.85c-0.34-2.06-0.87-3.8-1.62-5.21c-2.15-3.97-5.83-5.95-11.04-5.95
							c-3.14,0-5.54,0.61-7.2,1.85c-1.64,1.24-3.26,2.78-4.83,4.59v-5.7h-12.65v88.3h12.65v-31.13h0.25
							c1.4,2.07,3.08,3.65,5.02,4.77c1.94,1.12,4.15,1.67,6.63,1.67c3.14,0,5.54-0.53,7.2-1.6c3.3-2.07,5.21-5.17,5.7-9.3
							c0.25-2.07,0.38-5.41,0.38-10.05v-23.94C1140.73,1926.69,1140.56,1923.93,1140.24,1921.85z M1128.08,1954.97
							c0,1.98-0.43,3.73-1.3,5.22c-0.86,1.49-2.5,2.23-4.89,2.23c-1.83,0-3.34-0.64-4.53-1.93c-1.2-1.28-1.8-2.91-1.8-4.89v-24.44
							c0-2.31,0.57-4.19,1.74-5.64c1.16-1.45,2.69-2.18,4.59-2.18c2.14,0,3.72,0.8,4.71,2.36c0.99,1.57,1.49,3.64,1.49,6.2V1954.97z
							"/>
					</g>
				</g>
				<g>
					<g>
						<path class="st2" d="M1175.7,1912.68c-2.48,1.32-5,3.14-7.57,5.45v-6.69h-12.64v62.87h12.64v-37.33
							c0-2.56,0.42-4.71,1.24-6.45c0.84-1.75,1.91-3.14,3.24-4.23c1.24-1.07,2.62-1.84,4.15-2.3c1.53-0.44,2.96-0.68,4.28-0.68
							s2.61,0.25,3.85,0.74v-13.39C1181.24,1910.7,1178.17,1911.35,1175.7,1912.68z"/>
					</g>
				</g>
				<g>
					<g>
						<path class="st2" d="M1230.9,1947.65v-17.35c0-5.62-1.66-10.29-4.97-14.02c-1.66-1.74-3.65-3.09-6.01-4.08
							c-2.35-0.99-4.98-1.49-7.87-1.49c-3.98,0-7.35,0.82-10.11,2.48c-2.78,1.66-4.91,3.84-6.39,6.58c-0.91,1.64-1.53,3.55-1.85,5.7
							c-0.34,2.15-0.5,4.5-0.5,7.07v20.7c0,2.57,0.16,4.92,0.5,7.07c0.33,2.15,0.94,4.06,1.85,5.7c1.49,2.73,3.61,4.92,6.39,6.58
							c2.77,1.66,6.13,2.48,10.11,2.48c2.88,0,5.49-0.5,7.8-1.49c2.32-0.99,4.31-2.35,5.96-4.08c3.39-3.39,5.09-7.85,5.09-13.4
							h-12.66c-0.17,1.41-0.64,2.8-1.42,4.21c-0.8,1.41-2.39,2.11-4.77,2.11c-1.91,0-3.42-0.54-4.53-1.62
							c-1.12-1.07-1.68-2.61-1.68-4.59v-8.56H1230.9z M1205.83,1930.54c0-2.4,0.56-4.2,1.68-5.4c1.11-1.2,2.62-1.8,4.53-1.8
							c1.89,0,3.4,0.6,4.53,1.8c1.11,1.2,1.67,3,1.67,5.4v7.19h-12.41V1930.54z"/>
					</g>
				</g>
				<g>
					<g>
						<path class="st2" d="M1277.34,1945.8c-1.79-3.14-5.02-5.62-9.75-7.45l-7.44-2.97c-2.4-0.9-3.89-1.92-4.46-3.04
							c-0.59-1.11-0.87-2.24-0.87-3.41c0-1.66,0.54-3.12,1.62-4.4c1.07-1.29,2.6-1.93,4.58-1.93c1.66,0,3.13,0.53,4.41,1.62
							c1.28,1.07,1.96,2.69,2.05,4.84h11.9c0-2.57-0.44-4.98-1.36-7.27c-0.91-2.27-2.15-4.23-3.72-5.88
							c-1.58-1.66-3.46-2.94-5.65-3.85c-2.19-0.91-4.57-1.36-7.12-1.36c-2.57,0-4.97,0.43-7.2,1.29c-2.23,0.87-4.17,2.14-5.83,3.78
							c-1.74,1.66-3.09,3.63-4.08,5.9c-0.99,2.27-1.49,4.74-1.49,7.38c0,4.21,1.13,7.79,3.41,10.72c2.27,2.94,5.4,5.14,9.37,6.63
							l6.08,2.23c2.39,0.91,4.04,2,4.96,3.24c0.9,1.24,1.36,2.73,1.36,4.46c0,2.15-0.72,3.82-2.17,5.02c-1.45,1.2-3.08,1.8-4.91,1.8
							c-2.39,0-4.07-0.74-5.01-2.23c-0.95-1.49-1.55-3.1-1.8-4.84h-11.91c0.08,3.14,0.67,5.88,1.74,8.25
							c1.07,2.36,2.48,4.32,4.21,5.9c3.48,3.22,7.78,4.83,12.9,4.83c2.73,0,5.24-0.5,7.57-1.49c2.31-0.99,4.29-2.35,5.95-4.08
							c1.66-1.75,2.96-3.74,3.91-6.03c0.94-2.27,1.42-4.72,1.42-7.37C1280,1952.37,1279.11,1948.94,1277.34,1945.8z"/>
					</g>
				</g>
				<g>
					<g>
						<path class="st2" d="M1325.33,1945.8c-1.77-3.14-5.02-5.62-9.73-7.45l-7.44-2.97c-2.4-0.9-3.89-1.92-4.46-3.04
							c-0.59-1.11-0.87-2.24-0.87-3.41c0-1.66,0.54-3.12,1.62-4.4c1.07-1.29,2.6-1.93,4.58-1.93c1.66,0,3.12,0.53,4.41,1.62
							c1.28,1.07,1.96,2.69,2.05,4.84h11.9c0-2.57-0.46-4.98-1.36-7.27c-0.91-2.27-2.15-4.23-3.73-5.88
							c-1.57-1.66-3.44-2.94-5.64-3.85c-2.19-0.91-4.57-1.36-7.14-1.36c-2.56,0-4.96,0.43-7.19,1.29c-2.23,0.87-4.17,2.14-5.83,3.78
							c-1.74,1.66-3.09,3.63-4.1,5.9c-0.99,2.27-1.49,4.74-1.49,7.38c0,4.21,1.14,7.79,3.42,10.72c2.27,2.94,5.39,5.14,9.37,6.63
							l6.07,2.23c2.4,0.91,4.06,2,4.97,3.24c0.9,1.24,1.36,2.73,1.36,4.46c0,2.15-0.72,3.82-2.17,5.02c-1.45,1.2-3.08,1.8-4.91,1.8
							c-2.4,0-4.07-0.74-5.02-2.23c-0.95-1.49-1.55-3.1-1.8-4.84h-11.9c0.08,3.14,0.65,5.88,1.73,8.25c1.07,2.36,2.48,4.32,4.21,5.9
							c3.47,3.22,7.78,4.83,12.9,4.83c2.73,0,5.24-0.5,7.57-1.49c2.31-0.99,4.29-2.35,5.95-4.08c1.66-1.75,2.96-3.74,3.9-6.03
							c0.95-2.27,1.43-4.72,1.43-7.37C1328,1952.37,1327.11,1948.94,1325.33,1945.8z"/>
					</g>
				</g>
			</g>
			<g class="st18">
				<path class="st0" d="M2447.25,2445.34"/>
			</g>
			<g class="st19">
				<path class="st0" d="M2467.54,2538.19c-1.03,0.27-2.07,0.53-3.13,0.77c-2.65,0.61-5.35,1.11-8.09,1.5
					c-0.16,0.01-0.3,0.03-0.44,0.05c-0.83,0.12-1.68,0.22-2.53,0.31c-0.85,0.1-1.71,0.18-2.56,0.25c-0.67,0.06-1.33,0.1-2.01,0.14
					c-1.04,0.07-2.1,0.12-3.16,0.14c-1.77,0.05-3.54,0.05-5.3,0.01c-0.8-0.03-1.58-0.05-2.37-0.09c-0.67-0.03-1.33-0.07-1.98-0.12
					c-0.2-0.01-0.4-0.03-0.6-0.05c-0.7-0.05-1.41-0.1-2.11-0.18c-0.69-0.07-1.4-0.14-2.09-0.22c-1.03-0.13-2.06-0.26-3.09-0.43
					c-1.34-0.21-2.69-0.44-4.02-0.7c-0.2-0.04-0.39-0.08-0.57-0.12c-0.57-0.12-1.15-0.23-1.72-0.36c-0.22-0.05-0.44-0.1-0.67-0.16
					l21.53-94.77l-23.61-91.91v-0.01c0.09-0.03,0.2-0.05,0.29-0.06c0.82-0.21,1.64-0.4,2.47-0.59c0.63-0.14,1.27-0.29,1.89-0.42
					c0.14-0.03,0.29-0.05,0.43-0.08c0.59-0.13,1.19-0.23,1.79-0.34c0.59-0.1,1.19-0.21,1.79-0.3c0.65-0.1,1.3-0.21,1.97-0.29
					c0.43-0.07,0.86-0.12,1.29-0.17c0.5-0.07,1-0.13,1.5-0.18c0.04,0,0.09-0.01,0.14-0.01c0.6-0.07,1.21-0.12,1.81-0.17
					c0.85-0.08,1.71-0.14,2.57-0.18c0.56-0.04,1.12-0.07,1.68-0.09c0.44-0.03,0.89-0.04,1.33-0.05c0.2,0,0.39-0.01,0.59-0.01
					c0.76-0.03,1.51-0.03,2.27-0.03c0.72,0,1.44,0.01,2.15,0.03c0.81,0.01,1.62,0.04,2.43,0.08c1.36,0.06,2.71,0.16,4.04,0.27
					c1.9,0.17,3.78,0.39,5.65,0.67c0.23,0.04,0.47,0.08,0.7,0.12c0.68,0.1,1.36,0.22,2.04,0.34c0.69,0.13,1.38,0.26,2.07,0.4
					c0.77,0.14,1.53,0.31,2.3,0.48v0.01l-21.12,92.94L2467.54,2538.19z"/>
			</g>
			<g class="st19">
				<path class="st0" d="M934.58,2538.19c-1.03,0.27-2.07,0.53-3.13,0.77c-2.65,0.61-5.35,1.11-8.09,1.5
					c-0.16,0.01-0.3,0.03-0.44,0.05c-0.83,0.12-1.68,0.22-2.53,0.31c-0.85,0.1-1.71,0.18-2.56,0.25c-0.67,0.06-1.33,0.1-2.01,0.14
					c-1.04,0.07-2.1,0.12-3.16,0.14c-1.77,0.05-3.54,0.05-5.3,0.01c-0.8-0.03-1.58-0.05-2.37-0.09c-0.67-0.03-1.33-0.07-1.98-0.12
					c-0.2-0.01-0.4-0.03-0.6-0.05c-0.7-0.05-1.41-0.1-2.11-0.18c-0.69-0.07-1.4-0.14-2.09-0.22c-1.03-0.13-2.06-0.26-3.09-0.43
					c-1.34-0.21-2.69-0.44-4.02-0.7c-0.2-0.04-0.39-0.08-0.57-0.12c-0.57-0.12-1.15-0.23-1.72-0.36c-0.22-0.05-0.44-0.1-0.67-0.16
					l21.53-94.77l-23.61-91.91v-0.01c0.09-0.03,0.2-0.05,0.29-0.06c0.82-0.21,1.64-0.4,2.47-0.59c0.63-0.14,1.27-0.29,1.89-0.42
					c0.14-0.03,0.29-0.05,0.43-0.08c0.59-0.13,1.19-0.23,1.79-0.34c0.59-0.1,1.19-0.21,1.79-0.3c0.65-0.1,1.3-0.21,1.97-0.29
					c0.43-0.07,0.86-0.12,1.29-0.17c0.5-0.07,1-0.13,1.5-0.18c0.04,0,0.09-0.01,0.14-0.01c0.6-0.07,1.21-0.12,1.81-0.17
					c0.85-0.08,1.71-0.14,2.57-0.18c0.56-0.04,1.12-0.07,1.68-0.09c0.44-0.03,0.89-0.04,1.33-0.05c0.2,0,0.39-0.01,0.59-0.01
					c0.76-0.03,1.51-0.03,2.27-0.03c0.72,0,1.44,0.01,2.15,0.03c0.81,0.01,1.62,0.04,2.43,0.08c1.36,0.06,2.71,0.16,4.04,0.27
					c1.9,0.17,3.78,0.39,5.65,0.67c0.23,0.04,0.47,0.08,0.7,0.12c0.68,0.1,1.36,0.22,2.04,0.34c0.69,0.13,1.38,0.26,2.07,0.4
					c0.77,0.14,1.53,0.31,2.3,0.48v0.01l-21.12,92.94L934.58,2538.19z"/>
			</g>
			<g>
				<g>
					<path class="st20" d="M1872.3,2243.85c6.91,3.5,164.39,49.57,164.39,49.57l-248.52-2.51l1.26-67.97l64.68-5.49L1872.3,2243.85z
						"/>
				</g>
			</g>
			<g>
				<path class="st2" d="M2245,1391.32c14.58,2.64,29.9,46.82,0.22,66.92C2245.22,1458.24,2245.22,1403.58,2245,1391.32z"/>
			</g>
			<g>
				<path class="st2" d="M1538.11,751.57c-1.66,0-3.14-1.19-3.44-2.88c-5.3-29.44-38.67-45.74-42.3-46.7
					c-1.63-0.04-3.07-1.22-3.37-2.89c-0.34-1.9,0.93-3.72,2.84-4.06c3.41-0.6,15.26,5.84,24.4,13.24
					c9.76,7.91,22.08,21.13,25.32,39.16c0.34,1.9-0.92,3.72-2.82,4.06C1538.52,751.55,1538.31,751.57,1538.11,751.57z"/>
			</g>
		</g>
	</g>
	<g>
		<path class="st2" d="M2404.34,1998.91c0,0,136.35-16.41,217.16,55.55C2621.49,2054.47,2526.8,2014.07,2404.34,1998.91z"/>
	</g>
</g>
</svg>
