<?xml version="1.0" encoding="utf-8"?>
<!-- Generator: Adobe Illustrator 24.2.1, SVG Export Plug-In . SVG Version: 6.00 Build 0)  -->
<svg version="1.1" id="Слой_1" xmlns="http://www.w3.org/2000/svg" xmlns:xlink="http://www.w3.org/1999/xlink" x="0px" y="0px"
	 viewBox="0 0 4000 5000" style="enable-background:new 0 0 4000 5000;" xml:space="preserve">
<style type="text/css">
	.st0{fill:#EFE9E1;}
	.st1{fill:#E2A849;}
	.st2{fill:#FFFFFF;}
	.st3{fill:#EFCAA6;}
	.st4{fill:#FF474C;}
	.st5{fill:#698C80;}
	.st6{fill:#E28D8D;}
	.st7{opacity:0.2;}
	.st8{fill:#533724;}
	.st9{opacity:0.5;fill:#E28D8D;}
	.st10{fill:#E8A3A3;}
	.st11{fill:#D3BDAE;}
	.st12{fill:#78968A;}
	.st13{fill:#E5CFC1;}
	.st14{fill:#88A89A;}
	.st15{fill:#BAADA4;}
</style>
<path id="Фон" class="st0" d="M3556.24,3599.07H492.33c-143.91-1406,793.98-2416.66,1522.36-2420
	C2745.72,1175.73,3697.1,2185.06,3556.24,3599.07z"/>
<g id="Волосы_2">
	<path class="st1" d="M1970,1469c0.02-0.03,0.04-0.08,0.06-0.12c29.76-57.74,139.51-80.93,213.94-50.88
		c10.74,4.34,59.11,25.27,103,108c75.54,142.4,10.84,228.56,50,488c0.04,0.26,9.36,57.51,28,172l0,0l0,0
		c-82.2-56.28-137.05-115.12-171-157c-123.48-152.36-216.57-384.18-154.84-474.04C2045.74,1545.38,2063.83,1523.22,1970,1469z"/>
</g>
<path id="Тень_головы" class="st2" d="M2164.18,1790c-53.52,0-115.82-53.64-162.78-104.38
	c-3.28,2.9-11.66,10.41-20.44,18.28c-19.41,17.4-33.26,29.79-34.64,30.85c-67.11,51.33-91.83,51.59-157.88,52.3l-6.45,0.07l0.21-2
	c7.6-72.74,32.51-139.47,70.15-187.91c38.19-49.15,87.12-76.21,137.79-76.21c53.92,0,104.25,24.96,141.73,70.29
	c38.92,47.07,62.11,112.3,67.06,188.64l0.07,1.12l-1.02,0.55C2187.31,1787.4,2175.96,1790,2164.18,1790z M2001.73,1680.54l1.23,1.33
	c35.04,38.05,67.94,66.23,97.78,83.76c37.44,22,69.18,26.5,94.37,13.38c-5.06-75.12-27.93-139.25-66.18-185.51
	c-36.75-44.45-86.03-68.93-138.77-68.93c-49.44,0-97.31,26.55-134.77,74.76c-36.89,47.48-61.44,112.8-69.21,184.13l2.24-0.02
	c66.92-0.71,89.47-0.95,155.57-51.51c1.37-1.05,19.7-17.47,34.42-30.67c11.21-10.05,20.89-18.73,21.93-19.58L2001.73,1680.54z"/>
<g id="Обувь_2">
	<g>
		<path class="st3" d="M1730.16,3238.31l211.95,53.73l38.55,9.77c3.38,0.86,6.77,1.27,10.1,1.27c3.16,0,6.28-0.37,9.29-1.08
			c14.44-3.38,26.53-14.5,30.42-29.86c3.81-15.01-1.2-30.19-11.78-40.06c-4.88-4.57-10.95-7.99-17.89-9.75l-31.33-7.94
			l-219.17-55.56c-21.94-5.57-44.25,7.72-49.81,29.67C1694.92,3210.45,1708.21,3232.75,1730.16,3238.31z"/>
	</g>
	<path class="st4" d="M2144.86,3386.72c17.19-3.35,33.06-9.66,46.58-19.68c20.35-15.09,67.91-50.35,9.42-128.01
		c-4.4-5.84-9.63-11.12-15.55-15.88c-52.49-42.14-159.65-42.94-230.43-26.05c-7.14,1.7-11.54,8.96-9.53,16.02
		c3.8,13.28,5.54,29.07,0.14,44.72c-8.5,24.61-27.17,27.27-28.44,39.92C1913.52,3332.77,2049.41,3405.34,2144.86,3386.72z"/>
</g>
<path id="Нога" class="st5" d="M1915.51,2801.62l-771.96,119.75c-26.63,4.13-50.2,20.08-63.1,43.74
	c-15.4,28.25-17.24,70.08,43.22,121.02c92.97,78.34,480.61,180.3,626.55,216.69c33.84,8.44,69.47-3.96,90.78-31.57l162.1-210.02
	c12.58-16.3,19.03-36.49,18.24-57.06l-4.58-119.12C2014.75,2832.57,1967.42,2793.57,1915.51,2801.62z"/>
<g id="Обувь">
	<g>
		<path class="st3" d="M2257.14,3268.19l-214.75,41.13l-39.06,7.48c-3.42,0.66-6.83,0.87-10.16,0.67c-3.15-0.19-6.25-0.74-9.21-1.63
			c-14.22-4.23-25.63-16.04-28.61-31.6c-2.92-15.21,2.98-30.07,14.12-39.3c5.14-4.27,11.4-7.33,18.43-8.68l31.74-6.08l222.07-42.53
			c22.23-4.27,43.72,10.32,47.97,32.56C2293.96,3242.46,2279.38,3263.94,2257.14,3268.19z"/>
	</g>
	<path class="st2" d="M2042.38,3309.33l-39.06,7.48c-3.42,0.66-6.83,0.87-10.16,0.67c-3.15-0.19-6.25-0.74-9.21-1.63l-14.48-70.9
		c5.14-4.27,11.4-7.33,18.43-8.68l31.74-6.08c-1.3,8.41-2.48,23.32,2.33,40.89C2027.15,3289.93,2036.72,3302.77,2042.38,3309.33z"/>
	<path class="st4" d="M1804.14,3408.72c-17.19-3.35-33.06-9.66-46.58-19.68c-20.35-15.09-67.91-50.35-9.42-128.01
		c4.4-5.84,9.63-11.12,15.55-15.88c52.49-42.14,159.65-42.94,230.43-26.05c7.14,1.7,11.54,8.96,9.53,16.02
		c-3.8,13.28-5.54,29.07-0.14,44.72c8.5,24.61,27.17,27.27,28.44,39.92C2035.48,3354.77,1899.59,3427.34,1804.14,3408.72z"/>
</g>
<path id="Нога_2" class="st5" d="M2029.64,2801.25l766.96,118.98c26.46,4.1,49.88,19.95,62.69,43.46
	c15.3,28.06,17.13,69.63-42.94,120.24c-92.37,77.83-477.5,179.14-622.5,215.29c-33.62,8.38-69.02-3.93-90.2-31.37l-161.06-208.66
	c-12.5-16.19-18.91-36.25-18.12-56.69l4.55-118.35C1931.04,2831.99,1978.06,2793.25,2029.64,2801.25z"/>
<g id="Руки">
	<g>
		<path class="st3" d="M1774.27,2886.75c-55.36,12.13-181.5-166.36-239.86-233.68c-0.32-0.37,152.55-211.61,153-212
			c29.32-25.42,46-68.23,46-115c0-39.91-39.99-100.64-40.13-100.58c-37.4,16.47-295.48,344.3-288.87,426.58
			c0.33,63.28,306.4,275.53,333,292c4.98,3.08,11.18,0.83,16.17,0.09C1780.78,2940.11,1801.13,2880.87,1774.27,2886.75z"/>
	</g>
	<g>
		<path class="st3" d="M2194.91,2886.75c55.36,12.13,181.5-166.36,239.86-233.68c0.32-0.37-152.55-211.61-153-212
			c-29.32-25.42-46-68.23-46-115c0-39.91,39.99-100.64,40.13-100.58c37.4,16.47,295.48,344.3,288.87,426.58
			c-0.33,63.28-306.4,275.53-333,292c-4.98,3.08-11.18,0.83-16.17,0.09C2188.4,2940.11,2168.05,2880.87,2194.91,2886.75z"/>
	</g>
</g>
<g id="Тень">
	<path class="st2" d="M2635.34,2990.14c-0.01,0.13,0,0.32,0.12,0.51c0.11,0.2,0.33,0.35,0.5,0.4c0.14,0.06,0.38,0.02,0.3,0.03
		l-0.1,0.02l-0.41,0.07l-0.82,0.14l-1.64,0.28l-3.29,0.57l-6.57,1.14l-13.15,2.28l-26.28,4.64c-17.52,3.06-35.02,6.27-52.5,9.5
		c-35,6.35-69.86,13.26-104.52,21c-34.66,7.77-69.04,16.7-103.25,26.24c-17.09,4.81-34.1,9.94-51.08,15.13
		c-16.98,5.21-33.85,10.75-50.73,16.3l-0.02,0.01c-1.84,0.6-3.81-0.39-4.42-2.23c-0.6-1.81,0.37-3.77,2.17-4.4
		c16.82-5.9,33.74-11.53,50.73-16.93c17-5.38,34.1-10.44,51.24-15.33c34.31-9.75,68.95-18.29,103.79-25.88
		c34.84-7.67,69.97-13.8,105.1-19.61c17.58-2.85,35.19-5.48,52.81-8.07c8.8-1.31,17.63-2.48,26.45-3.69l13.24-1.76l6.63-0.84
		l3.32-0.41l1.66-0.2l0.83-0.1l0.42-0.05l0.1-0.01c-0.02,0,0.29-0.04,0.5,0.01c0.24,0.04,0.53,0.19,0.71,0.38
		c0.18,0.19,0.27,0.37,0.32,0.49c0.1,0.6-0.3,1.16-0.9,1.26S2635.44,2990.73,2635.34,2990.14z"/>
	<path class="st2" d="M1315.7,2989.77c0.06-0.12,0.14-0.3,0.32-0.49c0.18-0.19,0.46-0.33,0.71-0.38c0.21-0.05,0.52-0.01,0.5-0.01
		l0.1,0.01l0.42,0.05l0.83,0.1l1.66,0.2l3.32,0.41l6.63,0.84l13.24,1.76c8.82,1.2,17.65,2.38,26.45,3.69
		c17.61,2.59,35.23,5.22,52.81,8.07c35.13,5.81,70.26,11.94,105.1,19.61c34.84,7.59,69.49,16.13,103.79,25.88
		c17.15,4.88,34.25,9.94,51.24,15.33c16.99,5.4,33.91,11.03,50.73,16.93c1.82,0.64,2.78,2.64,2.15,4.46
		c-0.63,1.8-2.59,2.76-4.39,2.17l-0.02-0.01c-16.87-5.55-33.75-11.1-50.73-16.3c-16.98-5.19-33.99-10.32-51.08-15.13
		c-34.21-9.54-68.59-18.47-103.25-26.24c-34.66-7.73-69.52-14.65-104.52-21c-17.49-3.23-34.98-6.44-52.5-9.5l-26.28-4.64
		l-13.15-2.28l-6.57-1.14l-3.29-0.57l-1.64-0.28l-0.82-0.14l-0.41-0.07l-0.1-0.02c-0.09-0.01,0.15,0.02,0.3-0.03
		c0.18-0.05,0.39-0.2,0.5-0.4c0.11-0.19,0.13-0.38,0.12-0.51c-0.1,0.59-0.66,1-1.26,0.9S1315.6,2990.37,1315.7,2989.77z"/>
</g>
<g id="Верх">
	<path class="st6" d="M2601,2560l-205,128l-143.15-190.56c-0.67-0.34-1.36-0.68-2.05-1.06c-0.88-0.49-1.78-1.01-2.68-1.56
		c-0.31,0.73-0.63,1.47-0.95,2.21c-0.04,0.1-0.09,0.19-0.13,0.29c-4.6,10.71-9.44,21.56-14.46,32.46c-4,8.65-8.1,17.34-12.28,26
		c-7.14,14.8-14.53,29.54-21.98,44c-0.03,0.07-0.07,0.15-0.11,0.22c-4.18,8.1-8.38,16.12-12.57,24c-0.32,0.59-0.63,1.19-0.95,1.78
		c-3.62,6.78-7.23,13.45-10.81,20c-36.83,67.27-71.27,121.41-83.98,134.52c-60.72,62.61-160.55,64.25-223.55,3.93
		c-11.83-11.34-46.56-67.92-82.98-138.45c-3.38-6.55-6.78-13.23-10.18-20c-0.29-0.59-0.59-1.19-0.89-1.78
		c-3.95-7.88-7.89-15.9-11.8-24c-0.04-0.07-0.07-0.15-0.11-0.22c-6.97-14.46-13.85-29.21-20.47-44c-3.88-8.66-7.67-17.35-11.33-26
		c-3.7-8.72-7.27-17.4-10.7-26.01L1578,2690l-205-128l312-362c3.16-3.2,6.81-6.59,11-10c3.86-3.14,7.61-5.84,11.16-8.18
		c0.92-0.83,1.8-1.52,2.62-2.04c2.14-1.35,4.36-2.7,6.65-4.02c0.44-0.26,0.88-0.51,1.32-0.76c3.25-1.85,6.45-3.55,9.59-5.13
		c24.98-17.17,60.46-23.87,103.9-23.87h312.02c36.99,0,69.02,7.15,93.86,21.87c3.8,1.81,7.7,3.79,11.68,6
		c0.67,0.37,1.34,0.75,2.02,1.13c2.76,1.57,5.41,3.17,7.96,4.78c9.03,5.7,16.78,11.57,23.31,17.11c4.73,3.22,9.81,7.19,14.91,12.11
		c3.9,3.76,7.21,7.49,10,11L2601,2560z"/>
	<path class="st2" d="M2092.42,2167.53c0,62.7-49.7,113.53-111,113.53c-61.31,0-111-50.83-111-113.53c0-7.37,0.7-14.56,2.02-21.53
		h217.95C2091.71,2152.97,2092.42,2160.16,2092.42,2167.53z"/>
</g>
<g id="Шея">
	<path class="st3" d="M2064.5,2147.57l-18.31-75.47l-2.19-9.02l-24.08-99.01c0.09-1.48,0.1-3.17,0-4.68
		c-1.29-19.06-17.79-33.45-36.84-32.16c-6.99,0.47-13.35,2.99-18.54,6.94c-8.26,6.27-13.56,16.14-13.69,27.1
		c-0.02,0.92,0.01,1.86,0.07,2.8l-24.54,101.46l-1.2,4.96l-18.84,77.08c-1.24,5.64-1.92,11.49-1.92,17.5c0,44.74,36.26,81,81,81
		s81-36.26,81-81C2066.42,2159.06,2065.74,2153.21,2064.5,2147.57z"/>
</g>
<g id="Тень_головы_1_" class="st7">
	<path class="st8" d="M2019.92,1964.07c0.09-1.48,0.1-3.17,0-4.68c-1.29-19.06-17.79-33.45-36.84-32.16
		c-6.99,0.47-13.35,2.99-18.54,6.94l-13.69,27.1c-0.02,0.92,0.01,1.86,0.07,2.8l-24.54,101.46c8.89,8.85,28.85,24.69,58.04,24.54
		c31.18-0.15,51.66-18.43,59.58-26.99L2019.92,1964.07z"/>
</g>
<g id="Лицо">
	<path class="st3" d="M2166.94,1829.57c2.03-8.23,3.87-16.56,5.48-24.99c28.35-148.12-83.27-272.5-186-272.5
		c-102.72,0-227.84,127.23-186,272.5c2.53,8.79,5.15,17.41,7.84,25.87c-4.48,3.41-9.29,9.2-4.65,24.47
		c6.68,22.02,14.08,69.65,33.35,52.52c42.4,97.35,95.8,157.35,147.45,156.64c53.24-0.74,115.92-64.73,155.88-155.92
		c18.64,14.98,25.91-31.56,32.5-53.25C2177.85,1838.25,2171.67,1832.87,2166.94,1829.57z"/>
</g>
<g id="Волосы">
	<path class="st1" d="M2199.65,1804.02c-61.17,34.8-145.56-37.03-208-108c-2.53,2.17-57.37,53.89-60,56
		c-72.39,57.95-97,57-171.37,57.85c15.14-151.69,93.49-270.74,191.73-289.69c0.01,0,0.01,0,0.02,0v-0.28
		c-0.01-0.25-0.01-0.49-0.01-0.74v-0.21c-0.02-0.55-0.02-1.1-0.02-1.66c0-4.43,0.22-8.6,0.65-12.52
		c3.99-36.8,26.09-51.77,54.03-51.77c30.93,0,57.32,18.33,57.32,64.29c0,0.23,0,0.46-0.01,0.69c0,0.59-0.01,1.18-0.02,1.76
		c-0.09,5.05-0.5,9.97-1.18,14.75c-0.18,1.28-0.38,2.55-0.6,3.8c1.93,1.03,3.85,2.09,5.76,3.2
		C2139.92,1583.09,2191.75,1676.63,2199.65,1804.02z"/>
</g>
<path id="Резинка" class="st2" d="M2078.49,1547c-1.36,0-2.74-0.29-4.05-0.91c-18.17-8.57-37.33-15.07-56.95-19.31
	c-21.46-4.63-43.48-6.58-65.46-5.77c-5.24,0.19-9.65-3.9-9.84-9.15c-0.19-5.24,3.9-9.65,9.15-9.84c23.55-0.86,47.16,1.22,70.16,6.18
	c21.03,4.54,41.57,11.5,61.05,20.69c4.75,2.24,6.78,7.9,4.54,12.65C2085.47,1544.99,2082.06,1547,2078.49,1547z"/>
<path id="Тень_2" class="st9" d="M2173.88,2645.85c-3.58,6.54-7.14,12.96-10.66,19.22h-369.79
	c-3.33-6.27-6.69-12.68-10.06-19.22H2173.88z"/>
<g id="Стакан">
	<path class="st4" d="M893.63,3160.86c-1.12,0-2.25-0.16-3.38-0.51c-6.07-1.86-9.49-8.29-7.62-14.37l74.74-243.72
		c1.86-6.07,8.3-9.48,14.37-7.62c6.07,1.86,9.49,8.29,7.62,14.37l-74.74,243.72C903.11,3157.68,898.55,3160.86,893.63,3160.86z"/>
	<polygon class="st6" points="875,3057 766,3057 825,3377 875,3377 925,3377 984,3057 	"/>
</g>
<g id="Книги">
	<path class="st10" d="M3260.98,3371.52v54c0,6.6-5.4,12-12,12h-485c-6.6,0-12-5.4-12-12v-54c0-6.6,5.4-12,12-12h485
		C3255.58,3359.52,3260.98,3364.92,3260.98,3371.52z"/>
	<path class="st11" d="M3214.98,3279.66v67.72c0,6.6-5.4,12-12,12h-375c-6.6,0-12-5.4-12-12v-67.72c0-6.6,5.4-12,12-12h375
		C3209.58,3267.66,3214.98,3273.06,3214.98,3279.66z"/>
	<path class="st12" d="M3195.98,3267.38h-375c-6.6,0-12-5.4-12-12v-27.86c0-6.6,5.4-12,12-12h375c6.6,0,12,5.4,12,12v27.86
		C3207.98,3261.98,3202.58,3267.38,3195.98,3267.38z"/>
	<path class="st4" d="M3283.2,3430.3l-130.09-351.71c-2.29-6.19,0.9-13.13,7.09-15.42l26.13-9.66c6.19-2.29,13.13,0.9,15.42,7.09
		l130.09,351.71c2.29,6.19-0.9,13.13-7.09,15.42l-26.13,9.66C3292.43,3439.68,3285.49,3436.49,3283.2,3430.3z"/>
	<path class="st12" d="M3380.75,3429.73l-26.13,9.66c-6.19,2.29-13.13-0.9-15.42-7.09l-84.25-227.79l-8.85-23.92l-36.98-100
		c-2.29-6.19,0.9-13.13,7.09-15.42l26.13-9.66c6.19-2.29,13.13,0.9,15.42,7.09l24.02,64.96l22.64,61.19l83.42,225.56
		C3390.13,3420.5,3386.94,3427.44,3380.75,3429.73z"/>
	<rect x="2976.98" y="3267.66" class="st13" width="68" height="91.72"/>
	<rect x="2825.98" y="3359.52" class="st13" width="69.22" height="78"/>
	<polygon class="st14" points="3304.42,3188.75 3254.95,3204.51 3254.68,3204.6 3246.1,3180.59 3233.08,3144.12 3281.78,3127.56 	
		"/>
</g>
<g id="Наушники">
	
		<ellipse transform="matrix(0.1756 -0.9845 0.9845 0.1756 -68.5016 3666.281)" class="st2" cx="2154.8" cy="1874.04" rx="18.38" ry="7.07"/>
	
		<ellipse transform="matrix(0.9718 -0.2357 0.2357 0.9718 -390.3633 482.1651)" class="st2" cx="1821.8" cy="1874.04" rx="7.07" ry="18.38"/>
	<path class="st2" d="M1962.89,2739.46c-0.31,0-0.61-0.06-0.9-0.18c-15.94-6.41-35.24-125.25-60.76-292.44
		c-15.02-98.38-29.2-191.3-37.83-206.46c-28.05-49.25-18.02-112.76-10.7-159.13c3.45-21.83,6.42-40.68,4.53-52.37
		c-5.92-36.5-33.77-139.06-34.05-140.09l2.89-0.79c0.28,1.03,28.17,103.74,34.11,140.39c1.97,12.16-1.04,31.23-4.52,53.32
		c-7.25,45.93-17.18,108.84,10.35,157.18c8.9,15.64,22.47,104.54,38.19,207.49c10.38,67.98,21.1,138.27,31.45,193.46
		c14.11,75.26,22.57,94.18,27.23,96.55c1.72-1.28,5.88-10.78,15.1-57.65c6.89-35.01,15.08-82.46,24.57-137.42
		c32.61-188.88,77.27-447.56,120.53-497.17c21.77-24.97,22.73-74.57,23.43-110.78c0.4-20.61,0.71-36.89,4.33-44.86l2.73,1.24
		c-3.36,7.4-3.69,24.21-4.07,43.67c-0.71,36.67-1.68,86.9-24.17,112.69c-42.7,48.98-87.28,307.18-119.83,495.71
		c-21.87,126.69-33.65,192.99-41.32,197.28C1963.76,2739.34,1963.32,2739.46,1962.89,2739.46z"/>
</g>
<g id="Ноутбук">
	<path class="st11" d="M2234.16,3181.07H1722c-52.98,0-95.92-42.94-95.92-95.92v-324.16c0-52.98,42.94-95.92,95.92-95.92h512.16
		c52.98,0,95.92,42.94,95.92,95.92v324.16C2330.08,3138.13,2287.14,3181.07,2234.16,3181.07z"/>
	<circle class="st15" cx="1978" cy="2917" r="60"/>
	<circle class="st2" cx="1978.08" cy="2917.07" r="50"/>
</g>
</svg>
