<?xml version="1.0" encoding="utf-8"?>
<!-- Generator: Adobe Illustrator 25.0.0, SVG Export Plug-In . SVG Version: 6.00 Build 0)  -->
<svg version="1.1" id="Слой_1" xmlns="http://www.w3.org/2000/svg" xmlns:xlink="http://www.w3.org/1999/xlink" x="0px" y="0px"
	 viewBox="0 0 3000 3000" style="enable-background:new 0 0 3000 3000;" xml:space="preserve">
<style type="text/css">
	.st0{fill:#F9E6BD;}
	.st1{fill:none;stroke:#E5BD5A;stroke-width:10;stroke-miterlimit:10;}
	.st2{fill:none;stroke:#D6AB56;stroke-width:17;stroke-miterlimit:10;}
	.st3{fill:#BC934B;}
	.st4{fill:#E3BB94;}
	.st5{fill:#FFFFFF;}
	.st6{fill:none;stroke:#FFFFFF;stroke-width:2;stroke-linecap:round;stroke-miterlimit:10;}
	.st7{fill:#72543B;}
	.st8{fill:#E5BD5A;}
	.st9{fill:none;stroke:#D6AB56;stroke-width:27;stroke-miterlimit:10;}
	.st10{fill:#D6AB56;}
	.st11{fill:none;stroke:#D6AB56;stroke-width:17;stroke-linecap:round;stroke-linejoin:round;stroke-miterlimit:10;}
	.st12{fill:none;stroke:#D6AB56;stroke-width:13;stroke-linecap:round;stroke-linejoin:round;stroke-miterlimit:10;}
	.st13{fill:none;stroke:#BC934B;stroke-width:10;stroke-miterlimit:10;}
	.st14{fill:none;stroke:#D6AB56;stroke-width:7;stroke-miterlimit:10;}
	.st15{fill:none;stroke:#000000;stroke-width:7;stroke-miterlimit:10;}
	.st16{fill:none;stroke:#FFFFFF;stroke-width:5;stroke-linecap:round;stroke-miterlimit:10;}
	.st17{fill:#EDC262;}
	.st18{fill:none;stroke:#E5BD5A;stroke-width:22;stroke-miterlimit:10;}
</style>
<path class="st0" d="M1663.9,542.5c206.89,396.29,1032.56,973.17,1099.56,1331.62c137.3,734.51-596.72,877.82-1041.13,885.5
	c-279.94,4.84-1466.82,198.57-1594.75-1442.51C14.77-130.02,1464.04,159.68,1663.9,542.5z"/>
<circle class="st1" cx="1982.45" cy="2144.08" r="89.17"/>
<circle class="st1" cx="935.88" cy="2147.85" r="89.17"/>
<circle class="st2" cx="1357.05" cy="2225.15" r="74.9"/>
<path class="st3" d="M1471.94,830.08c-10.85-8.51-28.58-20.32-52.98-28.21c-27.15-8.78-50.72-8.88-65.08-7.83
	c2.74,28.72,53.08,36.14,45.02,60.7c-0.02,0.08,47.11-3.39,47.11-3.39L1471.94,830.08z"/>
<polygon class="st4" points="1409.63,712.13 1407.31,720.32 1399.97,746.06 1379.91,816.61 1446.38,841.47 1455.3,800.38 
	1470.13,731.99 "/>
<path class="st4" d="M1407.31,720.32l-7.34,25.74c1.4,13.83,11.55,30.6,41.65,48.02c4.76,2.77,9.32,4.84,13.68,6.3l14.83-68.39
	l-55.82-18.32c-1.89,0.87-3.63,2.24-5.05,4.02C1408.61,718.49,1407.96,719.38,1407.31,720.32z"/>
<ellipse transform="matrix(0.3119 -0.9501 0.9501 0.3119 355.5753 1881.6519)" class="st4" cx="1476.83" cy="695.35" rx="90.45" ry="71.64"/>
<path class="st5" d="M1433.88,725.4c20.48,4.01,96.35,13.58,107.62,2.6c0,0-21.11,96.87-88.63,61.64
	c-51.33-26.78-38.96-50.64-30.07-60.55C1425.59,725.99,1429.79,724.6,1433.88,725.4z"/>
<path class="st6" d="M1408.09,675.07c0,0-2.35,47.41,15.17,55.97"/>
<path class="st7" d="M1545.19,659.16c2.09,2.46,29.69,11.52,33.54,27.17c2.31,9.39,1.28,20.29-14.46,15.08
	c-15.75-5.21-21.2-15.99-32.51-8.92c-11.31,7.08-26.53-12.31-36.22-4.7c-9.69,7.61-86.15-30.58-86.15-30.58l140.46,3.47"/>
<g>
	<g>
		<path class="st8" d="M1544.94,663.65c8.47-4.82-14.88-111.67-68.82-122.31c-53.94-10.64-85.6,45.56-98.14,89.43
			c-9.53,33.36,2.96,19.45,9.49,10.86c2.67-3.51,5.79-6.71,9.28-9.52l23.04-18.37c0,0-10.29,50.97-7.49,56.25
			C1415.1,675.26,1519.55,678.08,1544.94,663.65z"/>
		<path class="st5" d="M1545.35,643.58c9.42-0.09,21.94,6.31,24.12,14.96c1.6,6.33,1.38,12.94-0.09,15.21
			c-5.74,8.84-93.25-5.8-165.34,6.66c-4.78,0.83-9.12-2.74-8.85-7.32c0.67-11.33,6.8-20.94,20.6-29.22
			C1430.93,634.78,1486.45,644.13,1545.35,643.58z"/>
	</g>
	
		<ellipse transform="matrix(0.9989 -0.0477 0.0477 0.9989 -30.516 65.7803)" class="st5" cx="1361.72" cy="671.68" rx="27.94" ry="26.39"/>
</g>
<path class="st6" d="M2864.84,1308.21c0,0,13.79,12.15,13.83,21.76"/>
<circle class="st9" cx="935.85" cy="2140.64" r="380.08"/>
<circle class="st9" cx="1982.42" cy="2136.87" r="380.08"/>
<path class="st10" d="M1554.85,2230.01l-126.56-7.58c-3.15-0.19-5.55-2.9-5.36-6.05l1.88-31.33c0.19-3.15,2.9-5.55,6.05-5.36
	l126.56,7.58c3.15,0.19,5.55,2.9,5.36,6.05l-1.88,31.33C1560.71,2227.8,1558.01,2230.2,1554.85,2230.01z"/>
<polyline class="st11" points="1778.88,1638.63 1355.87,2225.25 935.85,2140.64 1218.84,1689.29 1755.21,1570.26 1982.42,2136.87 
	"/>
<line class="st2" x1="1160.37" y1="1460.73" x2="1218.84" y2="1689.29"/>
<path class="st10" d="M1112.3,1489.03c-28.3,7.7-58.12,8.49-86.63,1.61c-12.46-3.01-22.48-6.89-23.29-11.67
	c-2.25-13.23-6.72-28.65,17.51-37.56c24.23-8.91,277.84-25.27,299.97-7.7s17.79,39.64-21.91,39.78
	c-39.7,0.14-52.97-18.93-83.84-11.46C1194.75,1466.71,1146.01,1479.86,1112.3,1489.03z"/>
<path class="st2" d="M1754.31,1569.37c-4.69-12.79-36.63-109.45-36.63-109.45"/>
<path class="st11" d="M1707.11,1468.66c0,0,201.27-29.94,240.65-46.02c39.39-16.08,51.73-46,51.73-46"/>
<path class="st12" d="M1929.42,1425.78c0,0-14.98,141.15-101.69,173.05"/>
<path class="st12" d="M1995.04,1386.56c0,0-7.49,113.63,0.5,139.76"/>
<circle class="st13" cx="1982.45" cy="2144.08" r="54.94"/>
<circle class="st13" cx="935.88" cy="2147.85" r="54.94"/>
<line class="st14" x1="1352.31" y1="2228.82" x2="1493.04" y2="2194.53"/>
<path class="st15" d="M884.83,2149.84"/>
<path class="st15" d="M913.51,2187.28"/>
<path class="st5" d="M1783.35,1423.05c40,11.86,72.81,23.89,97.01,33.47c42.09,16.66,51.85,23.44,57.79,34.59
	c14.23,26.7,2.02,69.7-23.66,87.46c-28.39,19.63-141.72-31.95-162.19-63.57C1728.67,1478.46,1783.35,1423.05,1783.35,1423.05z"/>
<path class="st10" d="M1613.37,2172.63c-0.9,2.91-2.45,5.43-4.46,7.45c-0.13,0.11-0.24,0.24-0.35,0.35
	c-0.03,0.06-0.06,0.11-0.11,0.14c-0.04,0.04-0.11,0.08-0.15,0.11c-0.8,0.73-1.69,1.41-2.62,1.98c-0.39,0.3-0.8,0.61-1.22,0.92
	c-5.87,4.41-15.33,10.46-36.1,13.23c-24.62,3.28-154.31-22.77-184.37-29.3c-5.7-1.24-10.32-5.63-11.65-11.39
	c-0.58-2.58-0.34-9.27-0.13-13.09c0.01-0.28,0.03-0.56,0.06-0.82c0.06-1,0.11-1.97,0.1-2.97v-0.46
	c0.03-14.62,10.85-51.46,10.85-51.46s-4.35-14.3,134.73,11.19C1614.97,2116.27,1619.51,2152.41,1613.37,2172.63z"/>
<path class="st16" d="M1531.28,2095.52c0,0,17.06,22.99,14.79,38.26"/>
<path class="st16" d="M1501.78,2092.53c0,0,17.06,22.99,14.79,38.26"/>
<path class="st16" d="M1557.68,2100.08c0,0,17.06,22.99,14.79,38.26"/>
<g>
	<path class="st5" d="M1608.91,2180.08c-0.13,0.11-0.24,0.24-0.35,0.35c-0.03,0.06-0.06,0.11-0.11,0.14
		c-0.04,0.04-0.11,0.08-0.15,0.11c-0.8,0.73-1.69,1.41-2.62,1.98c-0.39,0.3-0.8,0.61-1.22,0.92c-5.87,4.41-15.33,10.46-36.1,13.23
		c-24.62,3.28-154.31-22.77-184.37-29.3c-5.7-1.24-10.32-5.63-11.65-11.39c-0.58-2.58-0.34-9.27-0.13-13.09
		c0.01-0.28,0.03-0.56,0.06-0.82c0.06-1,0.11-1.97,0.1-2.97v-0.46L1608.91,2180.08z"/>
</g>
<path class="st17" d="M1057.43,1324.48c-10.19-7.64-74.38,29.75-39.94,111.87c27.08,64.57,347.83,204.26,433.12,236.41
	c11.37,4.29,15.65,18.43,12.1,30.05l-99.88,398.02l237.48,14.66l46.39-475.02c3.69-19.34-5.55-44.4-20.38-57.34l-255.29-220.99
	L1057.43,1324.48z"/>
<path class="st10" d="M1337.71,1453.04l-322.72-96.46c-43.94-14.42-9.32-69.47,5.3-114.53c12.71-39.22,53.02-166.35,73.39-214.12
	c0.37-0.87,0.77-1.76,1.2-2.65c0.04-0.11,0.09-0.21,0.15-0.31c0.43-0.93,0.91-1.89,1.43-2.85l0.02-0.05c0.48-0.9,0.98-1.8,1.51-2.72
	c0.09-0.19,0.19-0.36,0.29-0.54c0.53-0.94,1.1-1.86,1.69-2.82c0.52-0.84,1.05-1.7,1.61-2.57c0.27-0.43,0.55-0.87,0.85-1.31
	c0.49-0.75,0.99-1.5,1.52-2.26c0.83-1.21,1.69-2.44,2.58-3.69c0.7-0.94,1.4-1.9,2.12-2.87c0.15-0.21,0.33-0.43,0.49-0.65
	c0.79-1.03,1.58-2.08,2.39-3.12c0.81-1.02,1.63-2.06,2.47-3.11c3.01-3.72,6.26-7.54,9.71-11.44c2.04-2.29,4.16-4.62,6.35-6.96
	c1.08-1.17,2.17-2.33,3.28-3.51c0.17-0.18,0.32-0.35,0.51-0.52c1.06-1.11,2.14-2.24,3.23-3.36c1.24-1.29,2.51-2.59,3.82-3.9
	c1.25-1.27,2.51-2.55,3.81-3.82c0.22-0.22,0.44-0.45,0.66-0.67c1.06-1.05,2.14-2.12,3.22-3.18c3.94-3.85,8-7.75,12.18-11.65
	c1.39-1.32,2.8-2.61,4.21-3.92c2.99-2.76,6.03-5.55,9.11-8.32c1.29-1.15,2.59-2.32,3.89-3.49c2.04-1.83,4.11-3.65,6.17-5.48
	c1.95-1.7,3.89-3.41,5.86-5.11c0.67-0.59,1.34-1.17,2.03-1.75c0.26-0.23,0.52-0.46,0.79-0.69c2.56-2.21,5.14-4.44,7.73-6.64
	c72.27-61.47,153.33-117.97,153.33-117.97c68.55,54.98,118.05,36.04,118.05,36.04l31.35,126.99c4.3,15.57,7.99,31.25,11.05,47.02
	c0.7,3.53,1.35,7.08,1.99,10.62l-0.01,0.02c0.07,0.33,0.13,0.67,0.19,0.99c0.3,1.76,0.62,3.54,0.89,5.31
	c1.55,9.24,2.87,18.51,4,27.8c0.3,2.44,0.58,4.88,0.84,7.32c0.19,1.84,0.39,3.68,0.55,5.53c0.46,4.49,0.87,8.96,1.21,13.45
	c0.18,2.1,0.32,4.2,0.47,6.28c0.23,3.38,0.44,6.76,0.61,10.14c0.14,2.62,0.26,5.27,0.36,7.89c0.07,2.06,0.15,4.12,0.21,6.17
	c0,0.1,0.01,0.2,0.01,0.31c0.05,1.28,0.08,2.56,0.09,3.83c0.05,2.23,0.1,4.48,0.13,6.73c0.03,2.42,0.04,4.87,0.03,7.28
	c0,9.02-0.18,18.04-0.58,27.06c-0.09,2.18-0.19,4.38-0.31,6.55c-0.18,3.46-0.4,6.9-0.63,10.34c-0.16,2.22-0.32,4.41-0.52,6.62
	c-0.1,1.23-0.19,2.47-0.31,3.71c-0.61,7.17-1.37,14.35-2.23,21.48c-0.14,1.12-0.27,2.24-0.42,3.35c-0.35,2.73-0.71,5.46-1.09,8.18
	c-0.26,1.92-0.54,3.85-0.84,5.78c-0.39,2.56-0.79,5.13-1.2,7.68c-0.22,1.37-0.45,2.74-0.7,4.12c-0.41,2.53-0.87,5.06-1.35,7.59
	c-0.38,2.14-0.77,4.27-1.19,6.42c-0.67,3.48-1.38,6.96-2.11,10.44c-0.48,2.32-0.99,4.66-1.51,6.99c-0.49,2.18-0.98,4.36-1.5,6.55
	c-0.27,1.15-0.55,2.28-0.81,3.42c-0.02,0.05-0.03,0.13-0.05,0.19c-0.53,2.18-1.07,4.37-1.62,6.55c-0.07,0.3-0.15,0.59-0.21,0.89
	c-0.66,2.58-1.33,5.16-2.02,7.73l-17.79,66.55C1469.78,1416.04,1400.76,1473.73,1337.71,1453.04z"/>
<path class="st18" d="M998.29,1278.11c0,0,220.16,18.86,351.93-93.07"/>
<path class="st17" d="M1370.57,982.97c-134.05-90.91-175.62,104.35-19.8,258.11c80.14,79.08,462.8,322.21,462.8,322.21l46.58-116.44
	C1860.15,1446.85,1440.36,1030.3,1370.57,982.97z"/>
<g>
	<path class="st8" d="M1217.26,835.49l-2.89,6.45l-53.16,118.28l-154.56,343.91c-4.2,9.34-15.28,13.56-24.62,9.35l-361.18-162.32
		c-9.34-4.2-13.56-15.28-9.35-24.62l154.56-343.89l53.16-118.28l2.89-6.45c4.2-9.34,15.28-13.56,24.62-9.35l361.18,162.32
		C1217.25,815.07,1221.45,826.15,1217.26,835.49z"/>
	
		<rect x="925.37" y="595.69" transform="matrix(0.4099 -0.9121 0.9121 0.4099 -156.6057 1382.5254)" class="st10" width="129.68" height="433.22"/>
	<path class="st8" d="M1236.3,844.05l-37.89,84.32c-4.2,9.34-15.28,13.56-24.62,9.35l-121-54.39l-19.82-8.9l-130.95-58.85
		l-19.82-8.9l-109.81-49.35c-9.34-4.2-13.54-15.28-9.35-24.62l37.9-84.31c4.2-9.34,15.27-13.56,24.61-9.35l109.74,49.31l19.83,8.91
		l130.94,58.85l19.82,8.9l121.08,54.42C1236.29,823.65,1240.51,834.71,1236.3,844.05z"/>
	<g>
		<polygon class="st5" points="955.11,697.27 902.02,815.59 901.99,815.67 882.17,806.77 882.2,806.69 935.28,688.36 		"/>
	</g>
	<g>
		<polygon class="st5" points="1105.87,765.02 1052.79,883.34 1052.76,883.4 1032.94,874.5 1032.97,874.44 1086.05,756.13 		"/>
	</g>
	<g>
		<path class="st5" d="M752,948.83l15.35,6.89c3.02,1.36,5.28,2.87,6.78,4.52c1.49,1.66,2.5,3.53,3.03,5.61
			c0.53,2.08,0.61,4.26,0.24,6.55c-0.37,2.28-1.06,4.56-2.09,6.84c-1.61,3.57-3.26,6.16-4.95,7.76c-1.7,1.6-3.57,2.75-5.61,3.43
			c-2.04,0.68-3.99,0.87-5.85,0.57c-2.54-0.41-4.73-1.03-6.57-1.85l-15.35-6.89L752,948.83z M758.93,961.04l-8.21,18.26l2.53,1.14
			c2.16,0.97,3.8,1.42,4.93,1.35c1.13-0.07,2.22-0.58,3.27-1.55c1.05-0.96,2.18-2.78,3.38-5.46c1.59-3.54,2.1-6.23,1.53-8.05
			c-0.57-1.83-2.19-3.34-4.87-4.54L758.93,961.04z"/>
		<path class="st5" d="M797.6,969.31l27.68,12.44l-3.21,7.14l-17.33-7.79l-2.39,5.31l16.08,7.22l-3.06,6.82l-16.08-7.22l-2.96,6.59
			l17.83,8.01l-3.4,7.57l-28.18-12.66L797.6,969.31z"/>
		<path class="st5" d="M840.78,988.71l10.33,4.64l-11.32,25.2l16.12,7.24l-3.7,8.23l-26.45-11.88L840.78,988.71z"/>
		<path class="st5" d="M881.77,1007.13l10.35,4.65l-15.02,33.43l-10.35-4.65L881.77,1007.13z"/>
		<path class="st5" d="M905.68,1017.87l10.8,4.85l-3.28,27.44l18.24-20.72l10.48,4.71L914.49,1062l-11.2-5.03L905.68,1017.87z"/>
		<path class="st5" d="M954.7,1039.89l27.68,12.44l-3.21,7.14l-17.33-7.79l-2.39,5.31l16.08,7.22l-3.06,6.82l-16.08-7.22l-2.96,6.59
			l17.83,8.01l-3.4,7.57l-28.18-12.66L954.7,1039.89z"/>
		<path class="st5" d="M983,1092.78l15.02-33.43l17.22,7.73c3.19,1.43,5.51,2.8,6.95,4.11s2.35,2.93,2.71,4.88
			c0.37,1.95,0.07,3.98-0.88,6.11c-0.83,1.85-1.95,3.28-3.34,4.27c-1.4,0.99-2.97,1.59-4.73,1.81c-1.12,0.14-2.53,0.03-4.22-0.31
			c1.05,0.96,1.76,1.78,2.14,2.44c0.26,0.45,0.54,1.28,0.86,2.5s0.49,2.13,0.51,2.73l0.65,11.93l-11.67-5.24l-0.93-12.7
			c-0.11-1.64-0.34-2.77-0.71-3.42c-0.51-0.85-1.24-1.49-2.18-1.91l-0.91-0.41l-6.09,13.57L983,1092.78z M1002.31,1077.55l4.36,1.96
			c0.47,0.21,1.45,0.47,2.94,0.77c0.75,0.17,1.46,0.07,2.15-0.3c0.69-0.37,1.19-0.92,1.52-1.65c0.49-1.08,0.52-2.06,0.09-2.95
			c-0.42-0.88-1.58-1.75-3.46-2.6l-4.54-2.04L1002.31,1077.55z"/>
		<path class="st5" d="M1038.26,1077.43l11.47,5.15l1.67,14.3l11.81-8.24l11.41,5.13l-21.73,13.59l-6.29,14l-10.35-4.65l6.29-14
			L1038.26,1077.43z"/>
	</g>
	<g>
		<path class="st5" d="M692.87,1150.74c-0.11-0.04-0.22-0.08-0.34-0.13l-56.28-24.88c-2.4-1.06-3.48-3.86-2.42-6.25
			c1.06-2.4,3.86-3.49,6.25-2.42l56.28,24.88c2.4,1.06,3.48,3.86,2.42,6.25C697.77,1150.47,695.18,1151.56,692.87,1150.74z"/>
		<path class="st5" d="M790.92,1195.67c-0.11-0.04-0.22-0.08-0.34-0.13l-56.28-24.88c-2.4-1.06-3.48-3.86-2.42-6.25
			c1.06-2.39,3.86-3.48,6.25-2.42l56.28,24.88c2.4,1.06,3.48,3.86,2.42,6.25C795.83,1195.4,793.24,1196.49,790.92,1195.67z"/>
		<path class="st5" d="M888.97,1240.59c-0.11-0.04-0.22-0.08-0.34-0.13l-56.28-24.88c-2.4-1.06-3.48-3.86-2.42-6.25
			c1.06-2.39,3.87-3.47,6.25-2.42l56.28,24.88c2.4,1.06,3.48,3.86,2.42,6.25C893.88,1240.33,891.29,1241.42,888.97,1240.59z"/>
		<path class="st5" d="M987.03,1285.52c-0.11-0.04-0.22-0.08-0.34-0.13l-56.28-24.88c-2.4-1.06-3.48-3.86-2.42-6.25
			c1.06-2.39,3.86-3.47,6.25-2.42l56.28,24.88c2.4,1.06,3.48,3.86,2.42,6.25C991.94,1285.25,989.34,1286.34,987.03,1285.52z"/>
	</g>
</g>
<g>
	<path class="st5" d="M811.91,942.37c-1.89-2.49-3.03-5.32-3.43-8.48c-0.4-3.17,0.06-6.35,1.39-9.55c1.28-3.09,3.2-5.59,5.77-7.51
		c2.57-1.92,5.42-3.09,8.57-3.52c3.14-0.42,6.14-0.04,9,1.14c1.98,0.82,3.48,1.65,4.49,2.48c1.01,0.83,2.1,2.01,3.27,3.52
		l-0.65,1.57c-1.03-1.59-2.08-2.84-3.14-3.76c-1.06-0.92-2.51-1.76-4.35-2.52c-2.8-1.16-5.65-1.5-8.55-1.03
		c-2.9,0.48-5.52,1.63-7.85,3.47c-2.33,1.84-4.07,4.13-5.21,6.87c-1.15,2.77-1.53,5.63-1.16,8.57c0.38,2.94,1.4,5.58,3.07,7.91
		s3.81,4.04,6.41,5.11c1.87,0.77,3.59,1.23,5.16,1.36c1.57,0.14,3.24,0.02,5.01-0.34l-0.65,1.57c-1.7,0.26-3.34,0.28-4.93,0.07
		c-1.59-0.21-3.23-0.67-4.93-1.37C816.23,946.72,813.79,944.86,811.91,942.37z"/>
	<path class="st5" d="M855.53,924.68l1.36,0.56l-6.9,16.69c1.12-1.03,2.57-1.66,4.34-1.91c1.77-0.24,3.4-0.06,4.87,0.55
		c2.69,1.11,4.46,2.71,5.31,4.78c0.85,2.08,0.72,4.46-0.4,7.15l-4.6,11.13l-1.36-0.56l4.6-11.13c0.96-2.32,1.09-4.37,0.37-6.14
		c-0.71-1.77-2.18-3.12-4.42-4.04c-1.36-0.56-2.74-0.76-4.13-0.59c-1.4,0.17-2.65,0.68-3.76,1.53c-1.11,0.85-1.95,1.94-2.5,3.27
		l-4.6,11.13l-1.36-0.56L855.53,924.68z"/>
	<path class="st5" d="M881.34,950.28l1.36,0.56l-1.83,4.42c1.14-1.15,2.42-1.9,3.84-2.24c1.42-0.34,2.82-0.23,4.21,0.35
		c0.88,0.36,1.69,0.92,2.45,1.66l-0.65,1.57c-0.56-0.96-1.35-1.65-2.37-2.08c-1.02-0.42-2.13-0.52-3.34-0.29
		c-1.21,0.23-2.32,0.75-3.33,1.56c-1.01,0.81-1.77,1.81-2.26,2.99l-4.62,11.17l-1.36-0.56L881.34,950.28z"/>
	<path class="st5" d="M906.11,954.91c-0.18-0.41-0.18-0.82-0.01-1.25c0.16-0.4,0.45-0.67,0.87-0.83c0.41-0.16,0.82-0.16,1.22,0.01
		c0.4,0.16,0.68,0.45,0.86,0.86c0.18,0.41,0.19,0.81,0.02,1.2c-0.18,0.42-0.47,0.72-0.89,0.88c-0.41,0.16-0.82,0.16-1.22-0.01
		C906.58,955.6,906.29,955.31,906.11,954.91z M904.48,959.86l1.36,0.56l-7.9,19.11l-1.36-0.56L904.48,959.86z"/>
	<path class="st5" d="M913.96,985.88c-0.85-0.9-1.36-1.81-1.5-2.74l0.93-2.25c0.03,1.44,0.4,2.64,1.09,3.61
		c0.69,0.97,1.76,1.75,3.21,2.35c1.39,0.57,2.68,0.61,3.89,0.09c1.21-0.51,2.09-1.45,2.65-2.81c0.48-1.16,0.61-2.16,0.39-3
		c-0.22-0.84-0.73-1.8-1.54-2.9l-1.23-1.6c-0.87-1.19-1.51-2.11-1.92-2.76c-0.41-0.65-0.68-1.31-0.8-1.97
		c-0.12-0.66-0.04-1.35,0.25-2.06c0.47-1.13,1.24-1.87,2.31-2.23c1.07-0.35,2.25-0.26,3.52,0.26c1.56,0.64,2.71,1.54,3.47,2.68
		l-0.77,1.87c-0.4-1.52-1.42-2.63-3.06-3.3c-0.91-0.38-1.74-0.45-2.49-0.23c-0.75,0.22-1.28,0.68-1.57,1.39
		c-0.26,0.62-0.31,1.24-0.17,1.85c0.15,0.61,0.44,1.24,0.89,1.88c0.44,0.65,1.21,1.66,2.3,3.04c1.1,1.42,1.82,2.7,2.14,3.84
		c0.32,1.14,0.2,2.41-0.38,3.8c-0.73,1.76-1.88,2.93-3.47,3.51c-1.59,0.59-3.2,0.54-4.84-0.14
		C915.92,987.51,914.81,986.78,913.96,985.88z"/>
	<path class="st5" d="M938.52,994.37c-0.85-1.84-0.81-3.88,0.12-6.12l8.22-19.87l1.36,0.56l-3.18,7.69l5.86,2.42l-0.49,1.19
		l-5.86-2.42l-4.55,11c-0.77,1.87-0.82,3.56-0.14,5.09c0.68,1.52,1.87,2.64,3.57,3.34l-0.49,1.19
		C940.83,997.57,939.36,996.22,938.52,994.37z"/>
	<path class="st5" d="M963.08,984.1l1.36,0.56l-1.19,2.89c2.23-1.7,4.78-1.95,7.67-0.75c1.39,0.57,2.43,1.46,3.13,2.66
		c0.7,1.2,0.92,2.66,0.67,4.38c0.94-1.23,2.22-2.02,3.84-2.37c1.62-0.34,3.22-0.19,4.8,0.47c2.07,0.85,3.42,2.12,4.05,3.79
		c0.63,1.67,0.5,3.61-0.42,5.82l-5.23,12.65l-1.36-0.56l5.23-12.65c0.74-1.78,0.86-3.38,0.36-4.77c-0.5-1.4-1.5-2.41-3-3.03
		c-1.13-0.47-2.29-0.63-3.48-0.47c-1.19,0.15-2.26,0.58-3.22,1.28c-0.95,0.7-1.66,1.62-2.13,2.75l-5.06,12.23l-1.36-0.56l4.92-11.89
		c0.84-2.04,1.02-3.83,0.53-5.37c-0.49-1.54-1.5-2.63-3.03-3.27c-1.02-0.42-2.09-0.57-3.23-0.44c-1.13,0.13-2.17,0.51-3.1,1.13
		c-0.94,0.62-1.62,1.44-2.04,2.46l-5.27,12.74l-1.36-0.56L963.08,984.1z"/>
	<path class="st5" d="M1000.01,1020.71c-1.18-1.55-1.91-3.28-2.17-5.2c-0.27-1.92-0.03-3.77,0.71-5.55
		c0.74-1.78,1.88-3.26,3.42-4.43c1.54-1.17,3.28-1.88,5.21-2.14c1.93-0.26,3.8-0.02,5.62,0.73c1.84,0.76,3.38,1.97,4.62,3.63
		c1.24,1.66,1.86,3.4,1.87,5.22l1.98-4.8l1.36,0.56l-7.9,19.11l-1.36-0.56l1.97-4.76c-1.42,1.27-3.13,2.05-5.12,2.33
		c-1.99,0.29-3.89,0.06-5.71-0.69C1002.69,1023.4,1001.19,1022.25,1000.01,1020.71z M1009.91,1023.58c1.66-0.26,3.16-0.9,4.5-1.92
		c1.33-1.02,2.33-2.33,2.99-3.91c0.64-1.56,0.85-3.18,0.62-4.87c-0.23-1.69-0.84-3.21-1.84-4.57c-1-1.36-2.27-2.36-3.83-3
		c-1.56-0.64-3.18-0.83-4.86-0.57c-1.68,0.27-3.21,0.91-4.58,1.93c-1.37,1.03-2.38,2.32-3.02,3.87c-0.64,1.56-0.84,3.18-0.59,4.85
		c0.25,1.68,0.89,3.2,1.91,4.57c1.03,1.37,2.32,2.38,3.87,3.02C1006.63,1023.64,1008.24,1023.84,1009.91,1023.58z"/>
	<path class="st5" d="M1029.76,1033.78c-0.85-0.9-1.36-1.81-1.5-2.74l0.93-2.25c0.03,1.44,0.4,2.64,1.09,3.61
		c0.69,0.97,1.76,1.75,3.21,2.35c1.39,0.57,2.68,0.61,3.89,0.09c1.21-0.51,2.09-1.45,2.65-2.81c0.48-1.16,0.61-2.16,0.39-3
		c-0.22-0.84-0.73-1.8-1.54-2.9l-1.23-1.6c-0.87-1.19-1.51-2.11-1.92-2.76c-0.41-0.65-0.68-1.31-0.8-1.97
		c-0.12-0.66-0.04-1.35,0.25-2.06c0.47-1.13,1.24-1.87,2.31-2.23c1.07-0.35,2.25-0.26,3.52,0.26c1.56,0.64,2.71,1.54,3.47,2.68
		l-0.77,1.87c-0.4-1.52-1.42-2.63-3.06-3.3c-0.91-0.37-1.74-0.45-2.49-0.23c-0.75,0.22-1.28,0.68-1.57,1.39
		c-0.26,0.62-0.31,1.24-0.17,1.85c0.15,0.61,0.44,1.24,0.89,1.88c0.44,0.65,1.21,1.66,2.3,3.04c1.1,1.42,1.82,2.7,2.14,3.84
		c0.32,1.15,0.2,2.41-0.38,3.8c-0.73,1.76-1.88,2.93-3.47,3.51c-1.59,0.59-3.2,0.54-4.84-0.14
		C1031.72,1035.41,1030.61,1034.68,1029.76,1033.78z"/>
</g>
</svg>
